solid OpenSCAD_Model
  facet normal -0 0 1
    outer loop
      vertex 0 20 7.5
      vertex 9 0 7.5
      vertex 9 20 7.5
    endloop
  endfacet
  facet normal 0 0 1
    outer loop
      vertex 9 0 7.5
      vertex 0 20 7.5
      vertex 0 0 7.5
    endloop
  endfacet
  facet normal 0 0 -1
    outer loop
      vertex 0 0 0
      vertex 9 20 0
      vertex 9 0 0
    endloop
  endfacet
  facet normal -0 0 -1
    outer loop
      vertex 9 20 0
      vertex 0 0 0
      vertex 0 20 0
    endloop
  endfacet
  facet normal 0 -1 0
    outer loop
      vertex 0 0 0
      vertex 9 0 7.5
      vertex 0 0 7.5
    endloop
  endfacet
  facet normal 0 -1 -0
    outer loop
      vertex 9 0 7.5
      vertex 0 0 0
      vertex 9 0 0
    endloop
  endfacet
  facet normal 1 -0 0
    outer loop
      vertex 9 0 7.5
      vertex 9 20 0
      vertex 9 20 7.5
    endloop
  endfacet
  facet normal 1 0 0
    outer loop
      vertex 9 20 0
      vertex 9 0 7.5
      vertex 9 0 0
    endloop
  endfacet
  facet normal 0 1 -0
    outer loop
      vertex 9 20 0
      vertex 0 20 7.5
      vertex 9 20 7.5
    endloop
  endfacet
  facet normal 0 1 0
    outer loop
      vertex 0 20 7.5
      vertex 9 20 0
      vertex 0 20 0
    endloop
  endfacet
  facet normal -1 0 0
    outer loop
      vertex 0 0 0
      vertex 0 20 7.5
      vertex 0 20 0
    endloop
  endfacet
  facet normal -1 -0 0
    outer loop
      vertex 0 20 7.5
      vertex 0 0 0
      vertex 0 0 7.5
    endloop
  endfacet
endsolid OpenSCAD_Model
