  0
SECTION
  2
HEADER
  9
$ACADVER
  1
AC1014
  9
$HANDSEED
  5
FFFF
  9
$INSUNITS
 70
     0
  9
$MEASUREMENT
 70
     1
  0
ENDSEC
  0
SECTION
  2
TABLES
  0
TABLE
  2
VPORT
  5
8
330
0
100
AcDbSymbolTable
 70
     4
  0
VPORT
  5
2E
330
8
100
AcDbSymbolTableRecord
100
AcDbViewportTableRecord
  2
*ACTIVE
 70
     0
 10
0.0
 20
0.0
 11
1.0
 21
1.0
 12
210.0
 22
148.5
 13
0.0
 23
0.0
 14
10.0
 24
10.0
 15
10.0
 25
10.0
 16
0.0
 26
0.0
 36
1.0
 17
0.0
 27
0.0
 37
0.0
 40
341.0
 41
1.24
 42
50.0
 43
0.0
 44
0.0
 50
0.0
 51
0.0
 71
     0
 72
   100
 73
     1
 74
     3
 75
     0
 76
     0
 77
     0
 78
     0
  0
ENDTAB
  0
TABLE
  2
LTYPE
  5
5
330
0
100
AcDbSymbolTable
 70
     1
  0
LTYPE
  5
14
330
5
100
AcDbSymbolTableRecord
100
AcDbLinetypeTableRecord
  2
BYBLOCK
 70
     0
  3

 72
    65
 73
     0
 40
0.0
  0
LTYPE
  5
15
330
5
100
AcDbSymbolTableRecord
100
AcDbLinetypeTableRecord
  2
BYLAYER
 70
     0
  3

 72
    65
 73
     0
 40
0.0
  0
LTYPE
  5
16
330
5
100
AcDbSymbolTableRecord
100
AcDbLinetypeTableRecord
  2
CONTINUOUS
 70
     0
  3
Solid line
 72
    65
 73
     0
 40
0.0
  0
ENDTAB
  0
TABLE
  2
LAYER
  5
2
100
AcDbSymbolTable
 70
1
  0
LAYER
  5
50
100
AcDbSymbolTableRecord
100
AcDbLayerTableRecord
  2
0
 70
0
  6
CONTINUOUS
  0
ENDTAB
  0
TABLE
  2
STYLE
  5
3
330
0
100
AcDbSymbolTable
 70
     1
  0
STYLE
  5
11
330
3
100
AcDbSymbolTableRecord
100
AcDbTextStyleTableRecord
  2
STANDARD
 70
     0
 40
0.0
 41
1.0
 50
0.0
 71
     0
 42
2.5
  3
txt
  4

  0
ENDTAB
  0
TABLE
  2
VIEW
  5
6
330
0
100
AcDbSymbolTable
 70
     0
  0
ENDTAB
  0
TABLE
  2
UCS
  5
7
330
0
100
AcDbSymbolTable
 70
     0
  0
ENDTAB
  0
TABLE
  2
APPID
  5
9
330
0
100
AcDbSymbolTable
 70
     2
  0
APPID
  5
12
330
9
100
AcDbSymbolTableRecord
100
AcDbRegAppTableRecord
  2
ACAD
 70
     0
  0
ENDTAB
  0
TABLE
  2
DIMSTYLE
  5
A
330
0
100
AcDbSymbolTable
 70
     1
  0
DIMSTYLE
105
27
330
A
100
AcDbSymbolTableRecord
100
AcDbDimStyleTableRecord
  2
ISO-25
 70
     0
  3

  4

  5

  6

  7

 40
1.0
 41
2.5
 42
0.625
 43
3.75
 44
1.25
 45
0.0
 46
0.0
 47
0.0
 48
0.0
140
2.5
141
2.5
142
0.0
143
0.03937007874016
144
1.0
145
0.0
146
1.0
147
0.625
 71
     0
 72
     0
 73
     0
 74
     0
 75
     0
 76
     0
 77
     1
 78
     8
170
     0
171
     3
172
     1
173
     0
174
     0
175
     0
176
     0
177
     0
178
     0
270
     2
271
     2
272
     2
273
     2
274
     3
340
11
275
     0
280
     0
281
     0
282
     0
283
     0
284
     8
285
     0
286
     0
287
     3
288
     0
  0
ENDTAB
  0
TABLE
  2
BLOCK_RECORD
  5
1
330
0
100
AcDbSymbolTable
 70
     1
  0
BLOCK_RECORD
  5
1F
330
1
100
AcDbSymbolTableRecord
100
AcDbBlockTableRecord
  2
*MODEL_SPACE
  0
BLOCK_RECORD
  5
1B
330
1
100
AcDbSymbolTableRecord
100
AcDbBlockTableRecord
  2
*PAPER_SPACE
  0
ENDTAB
  0
ENDSEC
  0
SECTION
  2
BLOCKS
  0
BLOCK
  5
20
330
1F
100
AcDbEntity
  8
0
100
AcDbBlockBegin
  2
*MODEL_SPACE
 70
     0
 10
0.0
 20
0.0
 30
0.0
  3
*MODEL_SPACE
  1

  0
ENDBLK
  5
21
330
1F
100
AcDbEntity
  8
0
100
AcDbBlockEnd
  0
BLOCK
  5
1C
330
1B
100
AcDbEntity
 67
     1
  8
0
100
AcDbBlockBegin
  2
*PAPER_SPACE
  1

  0
ENDBLK
  5
1D
330
1B
100
AcDbEntity
 67
     1
  8
0
100
AcDbBlockEnd
  0
ENDSEC
  0
SECTION
  2
ENTITIES
  0
LWPOLYLINE
  5
100
100
AcDbEntity
  8
0
 62
7
100
AcDbPolyline
 90
439
 70
1
 10
143.680000
 20
5.576000
 30
0.0
 10
143.040875
 20
6.859125
 30
0.0
 10
142.571250
 20
9.073000
 30
0.0
 10
142.260250
 20
12.293375
 30
0.0
 10
142.097000
 20
16.596000
 30
0.0
 10
141.919000
 20
25.989000
 30
0.0
 10
137.885000
 20
27.728000
 30
0.0
 10
134.765721
 20
29.280650
 30
0.0
 10
132.117453
 20
31.060516
 30
0.0
 10
129.920053
 20
33.099717
 30
0.0
 10
128.153375
 20
35.430375
 30
0.0
 10
126.797275
 20
38.084611
 30
0.0
 10
125.831609
 20
41.094547
 30
0.0
 10
125.236232
 20
44.492303
 30
0.0
 10
124.991000
 20
48.310000
 30
0.0
 10
125.023438
 20
51.909406
 30
0.0
 10
125.356250
 20
54.552000
 30
0.0
 10
126.099688
 20
56.732594
 30
0.0
 10
127.364000
 20
58.946000
 30
0.0
 10
128.837531
 20
61.396078
 30
0.0
 10
129.136895
 20
62.310576
 30
0.0
 10
129.112000
 20
63.161125
 30
0.0
 10
128.738355
 20
64.055033
 30
0.0
 10
127.991469
 20
65.099609
 30
0.0
 10
125.280000
 20
68.070000
 30
0.0
 10
124.099338
 20
69.490632
 30
0.0
 10
123.032785
 20
71.119480
 30
0.0
 10
122.083800
 20
72.924784
 30
0.0
 10
121.255844
 20
74.874781
 30
0.0
 10
119.976855
 20
79.081816
 30
0.0
 10
119.223500
 20
83.486500
 30
0.0
 10
119.023457
 20
87.834746
 30
0.0
 10
119.139578
 20
89.908303
 30
0.0
 10
119.404406
 20
91.872469
 30
0.0
 10
119.821403
 20
93.695482
 30
0.0
 10
120.394027
 20
95.345582
 30
0.0
 10
121.125740
 20
96.791008
 30
0.0
 10
122.020000
 20
98.000000
 30
0.0
 10
123.415375
 20
99.845750
 30
0.0
 10
123.835609
 20
100.638406
 30
0.0
 10
123.985000
 20
101.204000
 30
0.0
 10
123.605141
 20
102.057000
 30
0.0
 10
122.585625
 20
103.632250
 30
0.0
 10
119.249000
 20
108.051000
 30
0.0
 10
116.546848
 20
111.469908
 30
0.0
 10
114.431781
 20
114.374141
 30
0.0
 10
112.830137
 20
116.947834
 30
0.0
 10
111.668250
 20
119.375125
 30
0.0
 10
110.872457
 20
121.840150
 30
0.0
 10
110.369094
 20
124.527047
 30
0.0
 10
110.084496
 20
127.619951
 30
0.0
 10
109.945000
 20
131.303000
 30
0.0
 10
109.905547
 20
136.587234
 30
0.0
 10
110.201625
 20
140.100625
 30
0.0
 10
110.531240
 20
141.508811
 30
0.0
 10
111.011641
 20
142.852953
 30
0.0
 10
112.514000
 20
145.854000
 30
0.0
 10
115.320125
 20
150.349750
 30
0.0
 10
118.157000
 20
154.061000
 30
0.0
 10
121.015000
 20
157.213000
 30
0.0
 10
117.269000
 20
161.528000
 30
0.0
 10
115.602750
 20
163.634688
 30
0.0
 10
113.836000
 20
166.181250
 30
0.0
 10
112.179500
 20
168.846688
 30
0.0
 10
110.844000
 20
171.310000
 30
0.0
 10
109.417000
 20
174.571359
 30
0.0
 10
108.932273
 20
176.120729
 30
0.0
 10
108.569750
 20
177.789875
 30
0.0
 10
108.120375
 20
182.009453
 30
0.0
 10
107.887000
 20
188.274000
 30
0.0
 10
107.816969
 20
194.453969
 30
0.0
 10
108.044500
 20
198.665750
 30
0.0
 10
108.679281
 20
201.849656
 30
0.0
 10
109.831000
 20
204.946000
 30
0.0
 10
110.921750
 20
207.181500
 30
0.0
 10
112.246500
 20
209.441750
 30
0.0
 10
113.638000
 20
211.463125
 30
0.0
 10
114.929000
 20
212.982000
 30
0.0
 10
116.661625
 20
215.010734
 30
0.0
 10
117.621750
 20
216.768625
 30
0.0
 10
117.783883
 20
217.466170
 30
0.0
 10
117.719000
 20
218.000203
 30
0.0
 10
117.415805
 20
218.338791
 30
0.0
 10
116.863000
 20
218.450000
 30
0.0
 10
116.075031
 20
218.862984
 30
0.0
 10
114.586750
 20
219.999625
 30
0.0
 10
110.362000
 20
223.749000
 30
0.0
 10
108.803830
 20
225.338612
 30
0.0
 10
107.343920
 20
227.053586
 30
0.0
 10
104.741984
 20
230.788438
 30
0.0
 10
102.602400
 20
234.811195
 30
0.0
 10
100.971375
 20
238.979500
 30
0.0
 10
99.895115
 20
243.150992
 30
0.0
 10
99.579462
 20
245.193446
 30
0.0
 10
99.419828
 20
247.183313
 30
0.0
 10
99.421989
 20
249.102796
 30
0.0
 10
99.591721
 20
250.934102
 30
0.0
 10
99.934799
 20
252.659435
 30
0.0
 10
100.457000
 20
254.261000
 30
0.0
 10
101.915000
 20
257.906000
 30
0.0
 10
98.151000
 20
260.845000
 30
0.0
 10
95.645438
 20
263.110188
 30
0.0
 10
93.503250
 20
265.829500
 30
0.0
 10
91.476938
 20
269.375313
 30
0.0
 10
89.319000
 20
274.120000
 30
0.0
 10
87.777000
 20
277.774000
 30
0.0
 10
82.740000
 20
276.057000
 30
0.0
 10
79.802266
 20
275.137891
 30
0.0
 10
78.686467
 20
274.918764
 30
0.0
 10
77.664875
 20
274.863875
 30
0.0
 10
76.631611
 20
274.976189
 30
0.0
 10
75.480797
 20
275.258672
 30
0.0
 10
72.403000
 20
276.346000
 30
0.0
 10
69.790469
 20
277.178812
 30
0.0
 10
67.015000
 20
277.776500
 30
0.0
 10
64.199781
 20
278.118438
 30
0.0
 10
61.468000
 20
278.184000
 30
0.0
 10
58.635891
 20
278.236094
 30
0.0
 10
56.012375
 20
278.585000
 30
0.0
 10
53.489922
 20
279.251906
 30
0.0
 10
50.961000
 20
280.258000
 30
0.0
 10
48.719422
 20
281.143672
 30
0.0
 10
46.215625
 20
281.895375
 30
0.0
 10
43.755516
 20
282.433891
 30
0.0
 10
41.645000
 20
282.680000
 30
0.0
 10
39.342469
 20
282.963984
 30
0.0
 10
36.897250
 20
283.640875
 30
0.0
 10
34.300156
 20
284.713578
 30
0.0
 10
31.542000
 20
286.185000
 30
0.0
 10
28.717156
 20
287.705594
 30
0.0
 10
26.212000
 20
288.732500
 30
0.0
 10
23.895094
 20
289.309406
 30
0.0
 10
21.635000
 20
289.480000
 30
0.0
 10
19.703258
 20
289.632115
 30
0.0
 10
17.562500
 20
290.093172
 30
0.0
 10
15.292180
 20
290.826361
 30
0.0
 10
12.971750
 20
291.794875
 30
0.0
 10
10.680664
 20
292.961904
 30
0.0
 10
8.498375
 20
294.290641
 30
0.0
 10
6.504336
 20
295.744275
 30
0.0
 10
4.778000
 20
297.286000
 30
0.0
 10
2.125000
 20
299.951000
 30
0.0
 10
7.661000
 20
301.301000
 30
0.0
 10
10.677891
 20
302.262242
 30
0.0
 10
14.537688
 20
303.842938
 30
0.0
 10
19.042203
 20
305.939164
 30
0.0
 10
23.993250
 20
308.447000
 30
0.0
 10
29.192641
 20
311.262523
 30
0.0
 10
34.442188
 20
314.281813
 30
0.0
 10
39.543703
 20
317.400945
 30
0.0
 10
44.299000
 20
320.516000
 30
0.0
 10
67.007000
 20
336.052000
 30
0.0
 10
77.134484
 20
342.910766
 30
0.0
 10
80.643354
 20
345.151123
 30
0.0
 10
83.462375
 20
346.785375
 30
0.0
 10
85.851600
 20
347.953455
 30
0.0
 10
88.071078
 20
348.795297
 30
0.0
 10
90.380861
 20
349.450834
 30
0.0
 10
93.041000
 20
350.060000
 30
0.0
 10
96.379413
 20
350.653594
 30
0.0
 10
99.621254
 20
350.973723
 30
0.0
 10
102.754492
 20
351.027091
 30
0.0
 10
105.767094
 20
350.820406
 30
0.0
 10
108.647028
 20
350.360374
 30
0.0
 10
111.382262
 20
349.653699
 30
0.0
 10
113.960763
 20
348.707089
 30
0.0
 10
116.370500
 20
347.527250
 30
0.0
 10
118.599440
 20
346.120887
 30
0.0
 10
120.635551
 20
344.494707
 30
0.0
 10
122.466800
 20
342.655416
 30
0.0
 10
124.081156
 20
340.609719
 30
0.0
 10
125.466586
 20
338.364323
 30
0.0
 10
126.611059
 20
335.925934
 30
0.0
 10
127.502541
 20
333.301257
 30
0.0
 10
128.129000
 20
330.497000
 30
0.0
 10
128.385740
 20
328.299525
 30
0.0
 10
128.399047
 20
326.162016
 30
0.0
 10
128.167549
 20
324.079842
 30
0.0
 10
127.689875
 20
322.048375
 30
0.0
 10
126.964654
 20
320.062986
 30
0.0
 10
125.990516
 20
318.119047
 30
0.0
 10
124.766088
 20
316.211928
 30
0.0
 10
123.290000
 20
314.337000
 30
0.0
 10
120.973250
 20
311.375000
 30
0.0
 10
120.272469
 20
310.266469
 30
0.0
 10
120.020000
 20
309.613000
 30
0.0
 10
120.282469
 20
309.052922
 30
0.0
 10
120.985000
 20
308.199875
 30
0.0
 10
123.282000
 20
306.078000
 30
0.0
 10
125.043703
 20
304.798359
 30
0.0
 10
126.572625
 20
304.092375
 30
0.0
 10
128.136234
 20
303.880453
 30
0.0
 10
130.002000
 20
304.083000
 30
0.0
 10
131.773795
 20
304.476635
 30
0.0
 10
133.168609
 20
304.990516
 30
0.0
 10
134.228713
 20
305.700732
 30
0.0
 10
134.996375
 20
306.683375
 30
0.0
 10
135.513865
 20
308.014533
 30
0.0
 10
135.823453
 20
309.770297
 30
0.0
 10
135.967408
 20
312.026756
 30
0.0
 10
135.988000
 20
314.860000
 30
0.0
 10
135.850734
 20
318.620812
 30
0.0
 10
135.473375
 20
321.616250
 30
0.0
 10
134.799578
 20
324.141813
 30
0.0
 10
133.773000
 20
326.493000
 30
0.0
 10
132.414148
 20
329.748838
 30
0.0
 10
131.670625
 20
333.001078
 30
0.0
 10
131.525602
 20
336.181061
 30
0.0
 10
131.962250
 20
339.220125
 30
0.0
 10
132.393442
 20
340.665357
 30
0.0
 10
132.963742
 20
342.049611
 30
0.0
 10
133.671046
 20
343.364306
 30
0.0
 10
134.513250
 20
344.600859
 30
0.0
 10
135.488251
 20
345.750688
 30
0.0
 10
136.593945
 20
346.805209
 30
0.0
 10
137.828229
 20
347.755841
 30
0.0
 10
139.189000
 20
348.594000
 30
0.0
 10
141.125459
 20
349.523217
 30
0.0
 10
143.069973
 20
350.206004
 30
0.0
 10
145.006617
 20
350.649687
 30
0.0
 10
146.919469
 20
350.861594
 30
0.0
 10
148.792606
 20
350.849051
 30
0.0
 10
150.610105
 20
350.619387
 30
0.0
 10
152.356044
 20
350.179927
 30
0.0
 10
154.014500
 20
349.538000
 30
0.0
 10
155.569549
 20
348.700932
 30
0.0
 10
157.005270
 20
347.676051
 30
0.0
 10
158.305738
 20
346.470683
 30
0.0
 10
159.455031
 20
345.092156
 30
0.0
 10
160.437227
 20
343.547797
 30
0.0
 10
161.236402
 20
341.844934
 30
0.0
 10
161.836634
 20
339.990892
 30
0.0
 10
162.222000
 20
337.993000
 30
0.0
 10
162.348531
 20
335.742500
 30
0.0
 10
162.089000
 20
333.474750
 30
0.0
 10
161.400469
 20
330.974125
 30
0.0
 10
160.240000
 20
328.025000
 30
0.0
 10
158.921687
 20
324.673094
 30
0.0
 10
158.218750
 20
321.710250
 30
0.0
 10
158.007437
 20
318.269281
 30
0.0
 10
158.164000
 20
313.483000
 30
0.0
 10
158.619000
 20
304.760000
 30
0.0
 10
163.322000
 20
304.547000
 30
0.0
 10
165.026000
 20
304.580660
 30
0.0
 10
166.827875
 20
304.805594
 30
0.0
 10
170.322500
 20
305.691000
 30
0.0
 10
171.813875
 20
306.282332
 30
0.0
 10
173.000375
 20
306.926656
 30
0.0
 10
173.781313
 20
307.589402
 30
0.0
 10
174.056000
 20
308.236000
 30
0.0
 10
173.340375
 20
309.576000
 30
0.0
 10
171.637000
 20
311.915000
 30
0.0
 10
170.590604
 20
313.371977
 30
0.0
 10
169.666336
 20
314.928381
 30
0.0
 10
168.187437
 20
318.284547
 30
0.0
 10
167.206820
 20
321.873658
 30
0.0
 10
166.731000
 20
325.585875
 30
0.0
 10
166.766492
 20
329.311357
 30
0.0
 10
167.319813
 20
332.940266
 30
0.0
 10
168.397477
 20
336.362760
 30
0.0
 10
169.134974
 20
337.962277
 30
0.0
 10
170.006000
 20
339.469000
 30
0.0
 10
172.448129
 20
342.785094
 30
0.0
 10
175.132906
 20
345.512625
 30
0.0
 10
176.573034
 20
346.658258
 30
0.0
 10
178.081918
 20
347.659844
 30
0.0
 10
179.662257
 20
348.518414
 30
0.0
 10
181.316750
 20
349.235000
 30
0.0
 10
183.048094
 20
349.810633
 30
0.0
 10
184.858988
 20
350.246344
 30
0.0
 10
188.730219
 20
350.702125
 30
0.0
 10
192.952027
 20
350.610594
 30
0.0
 10
197.546000
 20
349.980000
 30
0.0
 10
201.683189
 20
349.092371
 30
0.0
 10
205.543453
 20
347.940719
 30
0.0
 10
209.484834
 20
346.320270
 30
0.0
 10
213.865375
 20
344.026250
 30
0.0
 10
219.043119
 20
340.853887
 30
0.0
 10
225.376109
 20
336.598406
 30
0.0
 10
242.940000
 20
324.019000
 30
0.0
 10
248.831656
 20
319.912234
 30
0.0
 10
255.630250
 20
315.465625
 30
0.0
 10
262.494469
 20
311.214953
 30
0.0
 10
268.583000
 20
307.696000
 30
0.0
 10
276.029141
 20
303.685406
 30
0.0
 10
278.579029
 20
302.431035
 30
0.0
 10
280.592375
 20
301.587500
 30
0.0
 10
282.253361
 20
301.087465
 30
0.0
 10
283.746172
 20
300.863594
 30
0.0
 10
285.254990
 20
300.848551
 30
0.0
 10
286.964000
 20
300.975000
 30
0.0
 10
289.817562
 20
301.183875
 30
0.0
 10
291.398750
 20
301.055250
 30
0.0
 10
291.829625
 20
300.827461
 30
0.0
 10
292.083312
 20
300.471000
 30
0.0
 10
292.247000
 20
299.313000
 30
0.0
 10
291.988988
 20
298.024684
 30
0.0
 10
291.234219
 20
296.432406
 30
0.0
 10
290.074590
 20
294.644426
 30
0.0
 10
288.602000
 20
292.769000
 30
0.0
 10
286.908348
 20
290.914387
 30
0.0
 10
285.085531
 20
289.188844
 30
0.0
 10
283.225449
 20
287.700629
 30
0.0
 10
281.420000
 20
286.558000
 30
0.0
 10
279.629672
 20
285.760688
 30
0.0
 10
277.574875
 20
285.096500
 30
0.0
 10
275.509391
 20
284.634813
 30
0.0
 10
273.687000
 20
284.445000
 30
0.0
 10
271.720828
 20
284.202062
 30
0.0
 10
269.263875
 20
283.595750
 30
0.0
 10
266.629734
 20
282.717562
 30
0.0
 10
264.132000
 20
281.659000
 30
0.0
 10
261.127312
 20
280.328859
 30
0.0
 10
258.714750
 20
279.590375
 30
0.0
 10
256.473562
 20
279.355703
 30
0.0
 10
253.983000
 20
279.537000
 30
0.0
 10
251.804109
 20
279.721547
 30
0.0
 10
250.016625
 20
279.640875
 30
0.0
 10
248.539828
 20
279.284016
 30
0.0
 10
247.293000
 20
278.640000
 30
0.0
 10
246.199553
 20
278.024580
 30
0.0
 10
244.786922
 20
277.447891
 30
0.0
 10
241.081875
 20
276.427625
 30
0.0
 10
236.333391
 20
275.613047
 30
0.0
 10
230.697000
 20
275.038000
 30
0.0
 10
213.335375
 20
273.613500
 30
0.0
 10
209.353641
 20
273.112844
 30
0.0
 10
207.712000
 20
272.672000
 30
0.0
 10
207.221109
 20
272.156953
 30
0.0
 10
206.618375
 20
271.227625
 30
0.0
 10
205.383000
 20
268.653000
 30
0.0
 10
204.714383
 20
267.211584
 30
0.0
 10
203.839000
 20
265.720234
 30
0.0
 10
201.577250
 20
262.714625
 30
0.0
 10
198.816375
 20
259.889953
 30
0.0
 10
195.775000
 20
257.500000
 30
0.0
 10
194.301344
 20
256.336219
 30
0.0
 10
193.828223
 20
255.715082
 30
0.0
 10
193.500250
 20
254.971250
 30
0.0
 10
193.187781
 20
252.825906
 30
0.0
 10
193.180000
 20
249.321000
 30
0.0
 10
193.085650
 20
246.057037
 30
0.0
 10
192.661453
 20
242.935422
 30
0.0
 10
191.886936
 20
239.910814
 30
0.0
 10
190.741625
 20
236.937875
 30
0.0
 10
189.205049
 20
233.971264
 30
0.0
 10
187.256734
 20
230.965641
 30
0.0
 10
184.876209
 20
227.875666
 30
0.0
 10
182.043000
 20
224.656000
 30
0.0
 10
175.527000
 20
217.645000
 30
0.0
 10
179.744000
 20
212.798000
 30
0.0
 10
181.903797
 20
210.185937
 30
0.0
 10
183.694125
 20
207.714500
 30
0.0
 10
185.143016
 20
205.315062
 30
0.0
 10
186.278500
 20
202.919000
 30
0.0
 10
187.128609
 20
200.457687
 30
0.0
 10
187.721375
 20
197.862500
 30
0.0
 10
188.084828
 20
195.064812
 30
0.0
 10
188.247000
 20
191.996000
 30
0.0
 10
188.190766
 20
187.217332
 30
0.0
 10
187.779312
 20
182.907531
 30
0.0
 10
186.981516
 20
178.991527
 30
0.0
 10
185.766250
 20
175.394250
 30
0.0
 10
184.102391
 20
172.040629
 30
0.0
 10
181.958812
 20
168.855594
 30
0.0
 10
179.304391
 20
165.764074
 30
0.0
 10
176.108000
 20
162.691000
 30
0.0
 10
171.443000
 20
158.547000
 30
0.0
 10
174.576000
 20
155.321000
 30
0.0
 10
177.050848
 20
152.711723
 30
0.0
 10
178.965844
 20
150.487031
 30
0.0
 10
180.394043
 20
148.467887
 30
0.0
 10
181.408500
 20
146.475250
 30
0.0
 10
182.082270
 20
144.330082
 30
0.0
 10
182.488406
 20
141.853344
 30
0.0
 10
182.699965
 20
138.865996
 30
0.0
 10
182.790000
 20
135.189000
 30
0.0
 10
182.759545
 20
130.954914
 30
0.0
 10
182.506047
 20
127.378250
 30
0.0
 10
181.967432
 20
124.311023
 30
0.0
 10
181.081625
 20
121.605250
 30
0.0
 10
179.786553
 20
119.112945
 30
0.0
 10
178.020141
 20
116.686125
 30
0.0
 10
175.720314
 20
114.176805
 30
0.0
 10
172.825000
 20
111.437000
 30
0.0
 10
169.398750
 20
108.081859
 30
0.0
 10
168.217562
 20
106.701893
 30
0.0
 10
167.403500
 20
105.541125
 30
0.0
 10
166.965937
 20
104.615154
 30
0.0
 10
166.914250
 20
103.939578
 30
0.0
 10
167.257812
 20
103.529994
 30
0.0
 10
168.006000
 20
103.402000
 30
0.0
 10
168.625594
 20
102.960000
 30
0.0
 10
169.533000
 20
101.741750
 30
0.0
 10
170.606156
 20
99.933625
 30
0.0
 10
171.723000
 20
97.722000
 30
0.0
 10
173.153105
 20
93.993316
 30
0.0
 10
173.982719
 20
90.233344
 30
0.0
 10
174.214910
 20
86.459449
 30
0.0
 10
173.852750
 20
82.689000
 30
0.0
 10
172.899309
 20
78.939363
 30
0.0
 10
171.357656
 20
75.227906
 30
0.0
 10
169.230863
 20
71.571996
 30
0.0
 10
166.522000
 20
67.989000
 30
0.0
 10
163.832375
 20
64.647500
 30
0.0
 10
162.720000
 20
62.935000
 30
0.0
 10
163.481625
 20
61.477375
 30
0.0
 10
165.300000
 20
58.747000
 30
0.0
 10
166.584188
 20
56.665891
 30
0.0
 10
167.388750
 20
54.566875
 30
0.0
 10
167.821687
 20
52.046922
 30
0.0
 10
167.991000
 20
48.703000
 30
0.0
 10
167.949719
 20
46.615499
 30
0.0
 10
167.750285
 20
44.587479
 30
0.0
 10
167.400248
 20
42.629035
 30
0.0
 10
166.907156
 20
40.750266
 30
0.0
 10
166.278561
 20
38.961268
 30
0.0
 10
165.522012
 20
37.272139
 30
0.0
 10
164.645058
 20
35.692975
 30
0.0
 10
163.655250
 20
34.233875
 30
0.0
 10
162.560137
 20
32.904935
 30
0.0
 10
161.367270
 20
31.716252
 30
0.0
 10
160.084197
 20
30.677924
 30
0.0
 10
158.718469
 20
29.800047
 30
0.0
 10
157.277635
 20
29.092719
 30
0.0
 10
155.769246
 20
28.566037
 30
0.0
 10
154.200851
 20
28.230098
 30
0.0
 10
152.580000
 20
28.095000
 30
0.0
 10
149.682000
 20
28.040000
 30
0.0
 10
149.214000
 20
16.819000
 30
0.0
 10
148.824422
 20
10.481578
 30
0.0
 10
148.552236
 20
8.256396
 30
0.0
 10
148.204875
 20
6.573875
 30
0.0
 10
147.764654
 20
5.369244
 30
0.0
 10
147.213891
 20
4.577734
 30
0.0
 10
146.534900
 20
4.134576
 30
0.0
 10
145.710000
 20
3.975000
 30
0.0
 10
144.855500
 20
4.433875
 30
0.0
 10
143.680000
 20
5.576000
 30
0.0
  0
LWPOLYLINE
  5
101
100
AcDbEntity
  8
0
 62
7
100
AcDbPolyline
 90
21
 70
1
 10
146.314000
 20
31.536000
 30
0.0
 10
146.063844
 20
41.199859
 30
0.0
 10
145.734750
 20
48.224375
 30
0.0
 10
145.333281
 20
52.508953
 30
0.0
 10
145.107457
 20
53.592330
 30
0.0
 10
144.866000
 20
53.953000
 30
0.0
 10
144.639250
 20
53.578598
 30
0.0
 10
144.460875
 20
52.471281
 30
0.0
 10
144.250000
 20
48.094750
 30
0.0
 10
144.234875
 20
40.897094
 30
0.0
 10
144.417000
 20
30.952000
 30
0.0
 10
144.710891
 20
21.894500
 30
0.0
 10
145.076875
 20
14.725500
 30
0.0
 10
145.474922
 20
10.065250
 30
0.0
 10
145.673459
 20
8.869734
 30
0.0
 10
145.865000
 20
8.534000
 30
0.0
 10
146.032318
 20
9.105484
 30
0.0
 10
146.171547
 20
10.523812
 30
0.0
 10
146.358375
 20
15.523750
 30
0.0
 10
146.410766
 20
22.779312
 30
0.0
 10
146.314000
 20
31.536000
 30
0.0
  0
LWPOLYLINE
  5
102
100
AcDbEntity
  8
0
 62
7
100
AcDbPolyline
 90
23
 70
1
 10
141.635000
 20
43.317000
 30
0.0
 10
141.476873
 20
46.298113
 30
0.0
 10
141.217484
 20
48.617281
 30
0.0
 10
140.855322
 20
50.276496
 30
0.0
 10
140.388875
 20
51.277750
 30
0.0
 10
140.116072
 20
51.532264
 30
0.0
 10
139.816631
 20
51.623035
 30
0.0
 10
139.137078
 20
51.314344
 30
0.0
 10
138.348705
 20
50.353668
 30
0.0
 10
137.450000
 20
48.743000
 30
0.0
 10
136.883402
 20
47.225057
 30
0.0
 10
136.547031
 20
45.480203
 30
0.0
 10
136.435145
 20
43.563904
 30
0.0
 10
136.542000
 20
41.531625
 30
0.0
 10
136.861855
 20
39.438830
 30
0.0
 10
137.388969
 20
37.340984
 30
0.0
 10
138.117598
 20
35.293553
 30
0.0
 10
139.042000
 20
33.352000
 30
0.0
 10
140.670000
 20
30.369000
 30
0.0
 10
141.282000
 20
32.881000
 30
0.0
 10
141.499437
 20
34.481812
 30
0.0
 10
141.638500
 20
36.983000
 30
0.0
 10
141.635000
 20
43.317000
 30
0.0
  0
LWPOLYLINE
  5
103
100
AcDbEntity
  8
0
 62
7
100
AcDbPolyline
 90
24
 70
1
 10
153.232000
 20
34.043000
 30
0.0
 10
153.668678
 20
35.349676
 30
0.0
 10
153.954172
 20
37.137594
 30
0.0
 10
154.093875
 20
41.438000
 30
0.0
 10
153.959217
 20
43.590910
 30
0.0
 10
153.695641
 20
45.505906
 30
0.0
 10
153.308713
 20
47.003199
 30
0.0
 10
152.804000
 20
47.903000
 30
0.0
 10
152.034420
 20
48.566043
 30
0.0
 10
151.422047
 20
48.877031
 30
0.0
 10
150.947557
 20
48.785879
 30
0.0
 10
150.591625
 20
48.242500
 30
0.0
 10
150.334928
 20
47.196809
 30
0.0
 10
150.158141
 20
45.598719
 30
0.0
 10
149.967000
 20
40.545000
 30
0.0
 10
149.957437
 20
36.607875
 30
0.0
 10
150.117750
 20
33.978000
 30
0.0
 10
150.465938
 20
32.511375
 30
0.0
 10
150.716109
 20
32.169281
 30
0.0
 10
151.020000
 20
32.064000
 30
0.0
 10
151.570234
 20
32.227953
 30
0.0
 10
152.170625
 20
32.655625
 30
0.0
 10
152.748703
 20
33.282234
 30
0.0
 10
153.232000
 20
34.043000
 30
0.0
  0
LWPOLYLINE
  5
104
100
AcDbEntity
  8
0
 62
7
100
AcDbPolyline
 90
66
 70
1
 10
161.283000
 20
38.936000
 30
0.0
 10
162.346385
 20
40.878160
 30
0.0
 10
163.200766
 20
42.766152
 30
0.0
 10
163.844045
 20
44.606374
 30
0.0
 10
164.274125
 20
46.405219
 30
0.0
 10
164.488908
 20
48.169083
 30
0.0
 10
164.486297
 20
49.904363
 30
0.0
 10
164.264193
 20
51.617454
 30
0.0
 10
163.820500
 20
53.314750
 30
0.0
 10
163.153119
 20
55.002648
 30
0.0
 10
162.259953
 20
56.687543
 30
0.0
 10
161.138904
 20
58.375831
 30
0.0
 10
159.787875
 20
60.073906
 30
0.0
 10
158.204768
 20
61.788166
 30
0.0
 10
156.387484
 20
63.525004
 30
0.0
 10
152.042000
 20
67.092000
 30
0.0
 10
145.969000
 20
71.675000
 30
0.0
 10
144.137187
 20
73.199734
 30
0.0
 10
142.206000
 20
75.046125
 30
0.0
 10
140.405312
 20
76.981203
 30
0.0
 10
138.965000
 20
78.772000
 30
0.0
 10
137.457906
 20
81.064344
 30
0.0
 10
136.632750
 20
83.074500
 30
0.0
 10
136.334469
 20
85.401906
 30
0.0
 10
136.408000
 20
88.646000
 30
0.0
 10
136.722000
 20
94.543000
 30
0.0
 10
132.514000
 20
97.095000
 30
0.0
 10
129.066000
 20
98.887625
 30
0.0
 10
127.646969
 20
99.426141
 30
0.0
 10
126.686000
 20
99.616000
 30
0.0
 10
125.915413
 20
99.454762
 30
0.0
 10
125.203834
 20
99.019893
 30
0.0
 10
124.555287
 20
98.338534
 30
0.0
 10
123.973797
 20
97.437828
 30
0.0
 10
123.028080
 20
95.086943
 30
0.0
 10
122.398875
 20
92.184375
 30
0.0
 10
122.118373
 20
88.947260
 30
0.0
 10
122.218766
 20
85.592734
 30
0.0
 10
122.732244
 20
82.337936
 30
0.0
 10
123.691000
 20
79.400000
 30
0.0
 10
125.117344
 20
76.771943
 30
0.0
 10
127.063250
 20
74.119547
 30
0.0
 10
129.459156
 20
71.500971
 30
0.0
 10
132.235500
 20
68.974375
 30
0.0
 10
135.322719
 20
66.597920
 30
0.0
 10
138.651250
 20
64.429766
 30
0.0
 10
142.151531
 20
62.528072
 30
0.0
 10
145.754000
 20
60.951000
 30
0.0
 10
147.678229
 20
60.037691
 30
0.0
 10
149.610578
 20
58.803781
 30
0.0
 10
151.483045
 20
57.320168
 30
0.0
 10
153.227625
 20
55.657750
 30
0.0
 10
154.776314
 20
53.887426
 30
0.0
 10
156.061109
 20
52.080094
 30
0.0
 10
157.014006
 20
50.306652
 30
0.0
 10
157.567000
 20
48.638000
 30
0.0
 10
157.912562
 20
45.737313
 30
0.0
 10
157.863250
 20
42.417750
 30
0.0
 10
157.430312
 20
38.842063
 30
0.0
 10
156.625000
 20
35.173000
 30
0.0
 10
156.312453
 20
33.871891
 30
0.0
 10
156.326625
 20
33.299875
 30
0.0
 10
156.729484
 20
33.384672
 30
0.0
 10
157.583000
 20
34.054000
 30
0.0
 10
159.344125
 20
36.062625
 30
0.0
 10
161.283000
 20
38.936000
 30
0.0
  0
LWPOLYLINE
  5
105
100
AcDbEntity
  8
0
 62
7
100
AcDbPolyline
 90
35
 70
1
 10
132.482000
 20
39.623000
 30
0.0
 10
132.222262
 20
42.029785
 30
0.0
 10
132.137344
 20
44.235781
 30
0.0
 10
132.230316
 20
46.255824
 30
0.0
 10
132.504250
 20
48.104750
 30
0.0
 10
132.962215
 20
49.797395
 30
0.0
 10
133.607281
 20
51.348594
 30
0.0
 10
134.442520
 20
52.773184
 30
0.0
 10
135.471000
 20
54.086000
 30
0.0
 10
136.417406
 20
55.268084
 30
0.0
 10
137.045625
 20
56.337047
 30
0.0
 10
137.355656
 20
57.292830
 30
0.0
 10
137.347500
 20
58.135375
 30
0.0
 10
137.021156
 20
58.864623
 30
0.0
 10
136.376625
 20
59.480516
 30
0.0
 10
135.413906
 20
59.982994
 30
0.0
 10
134.133000
 20
60.372000
 30
0.0
 10
132.667547
 20
60.567266
 30
0.0
 10
131.479875
 20
60.312625
 30
0.0
 10
130.352016
 20
59.508422
 30
0.0
 10
129.066000
 20
58.055000
 30
0.0
 10
127.844063
 20
56.282594
 30
0.0
 10
127.461469
 20
55.424855
 30
0.0
 10
127.212750
 20
54.487500
 30
0.0
 10
127.061813
 20
52.078156
 30
0.0
 10
127.281000
 20
48.463000
 30
0.0
 10
127.664750
 20
45.292313
 30
0.0
 10
128.257000
 20
42.569750
 30
0.0
 10
129.072000
 20
40.244313
 30
0.0
 10
130.124000
 20
38.265000
 30
0.0
 10
131.850500
 20
35.758250
 30
0.0
 10
132.785000
 20
34.720000
 30
0.0
 10
132.876313
 20
35.109078
 30
0.0
 10
132.849500
 20
36.163125
 30
0.0
 10
132.482000
 20
39.623000
 30
0.0
  0
LWPOLYLINE
  5
106
100
AcDbEntity
  8
0
 62
7
100
AcDbPolyline
 90
89
 70
1
 10
161.700000
 20
72.027000
 30
0.0
 10
163.491986
 20
73.860420
 30
0.0
 10
165.039766
 20
75.774547
 30
0.0
 10
166.343068
 20
77.768807
 30
0.0
 10
167.401625
 20
79.842625
 30
0.0
 10
168.215166
 20
81.995428
 30
0.0
 10
168.783422
 20
84.226641
 30
0.0
 10
169.106123
 20
86.535689
 30
0.0
 10
169.183000
 20
88.922000
 30
0.0
 10
168.837244
 20
92.445707
 30
0.0
 10
167.931203
 20
95.836781
 30
0.0
 10
166.455842
 20
99.107152
 30
0.0
 10
164.402125
 20
102.268750
 30
0.0
 10
161.761018
 20
105.333504
 30
0.0
 10
158.523484
 20
108.313344
 30
0.0
 10
154.680490
 20
111.220199
 30
0.0
 10
150.223000
 20
114.066000
 30
0.0
 10
144.842203
 20
117.569359
 30
0.0
 10
140.017625
 20
121.307375
 30
0.0
 10
137.959611
 20
123.140834
 30
0.0
 10
136.215484
 20
124.884703
 30
0.0
 10
134.843521
 20
126.489564
 30
0.0
 10
133.902000
 20
127.906000
 30
0.0
 10
133.153570
 20
129.618049
 30
0.0
 10
132.649500
 20
131.496891
 30
0.0
 10
132.387117
 20
133.485068
 30
0.0
 10
132.363750
 20
135.525125
 30
0.0
 10
132.576727
 20
137.559604
 30
0.0
 10
133.023375
 20
139.531047
 30
0.0
 10
133.701023
 20
141.381998
 30
0.0
 10
134.607000
 20
143.055000
 30
0.0
 10
135.486953
 20
144.434844
 30
0.0
 10
136.042812
 20
145.529312
 30
0.0
 10
136.197328
 20
146.454187
 30
0.0
 10
135.873250
 20
147.325250
 30
0.0
 10
134.993328
 20
148.258281
 30
0.0
 10
133.480312
 20
149.369062
 30
0.0
 10
128.246000
 20
152.587000
 30
0.0
 10
126.186711
 20
153.783406
 30
0.0
 10
124.556000
 20
154.574813
 30
0.0
 10
123.244602
 20
154.918000
 30
0.0
 10
122.143250
 20
154.769750
 30
0.0
 10
121.142680
 20
154.086844
 30
0.0
 10
120.133625
 20
152.826062
 30
0.0
 10
119.006820
 20
150.944187
 30
0.0
 10
117.653000
 20
148.398000
 30
0.0
 10
116.375123
 20
145.612809
 30
0.0
 10
115.424797
 20
142.794406
 30
0.0
 10
114.801354
 20
139.928051
 30
0.0
 10
114.504125
 20
136.999000
 30
0.0
 10
114.532443
 20
133.992512
 30
0.0
 10
114.885641
 20
130.893844
 30
0.0
 10
115.563049
 20
127.688254
 30
0.0
 10
116.564000
 20
124.361000
 30
0.0
 10
118.041453
 20
120.515375
 30
0.0
 10
119.703125
 20
117.447500
 30
0.0
 10
121.962734
 20
114.525125
 30
0.0
 10
125.234000
 20
111.116000
 30
0.0
 10
128.257922
 20
108.360812
 30
0.0
 10
131.508625
 20
105.801750
 30
0.0
 10
134.773016
 20
103.594812
 30
0.0
 10
137.838000
 20
101.896000
 30
0.0
 10
142.200207
 20
99.574328
 30
0.0
 10
145.930844
 20
97.130312
 30
0.0
 10
148.992059
 20
94.612328
 30
0.0
 10
151.346000
 20
92.068750
 30
0.0
 10
152.245915
 20
90.802480
 30
0.0
 10
152.954816
 20
89.547953
 30
0.0
 10
153.467974
 20
88.311215
 30
0.0
 10
153.780656
 20
87.098312
 30
0.0
 10
153.888131
 20
85.915293
 30
0.0
 10
153.785668
 20
84.768203
 30
0.0
 10
153.468535
 20
83.663090
 30
0.0
 10
152.932000
 20
82.606000
 30
0.0
 10
152.330250
 20
81.266437
 30
0.0
 10
151.860500
 20
79.466750
 30
0.0
 10
151.564000
 20
77.414687
 30
0.0
 10
151.482000
 20
75.318000
 30
0.0
 10
151.699775
 20
72.568447
 30
0.0
 10
152.232141
 20
70.483078
 30
0.0
 10
152.614438
 20
69.690067
 30
0.0
 10
153.073154
 20
69.063826
 30
0.0
 10
153.607548
 20
68.604598
 30
0.0
 10
154.216875
 20
68.312625
 30
0.0
 10
154.900394
 20
68.188148
 30
0.0
 10
155.657361
 20
68.231408
 30
0.0
 10
157.388672
 20
68.822109
 30
0.0
 10
159.404865
 20
70.086662
 30
0.0
 10
161.700000
 20
72.027000
 30
0.0
  0
LWPOLYLINE
  5
107
100
AcDbEntity
  8
0
 62
7
100
AcDbPolyline
 90
22
 70
1
 10
147.536000
 20
78.258000
 30
0.0
 10
147.369641
 20
83.570328
 30
0.0
 10
147.122686
 20
85.592842
 30
0.0
 10
146.760875
 20
87.212125
 30
0.0
 10
146.279955
 20
88.442580
 30
0.0
 10
145.675672
 20
89.298609
 30
0.0
 10
144.943771
 20
89.794615
 30
0.0
 10
144.080000
 20
89.945000
 30
0.0
 10
143.848677
 20
89.789492
 30
0.0
 10
143.660318
 20
89.357559
 30
0.0
 10
143.406422
 20
87.813469
 30
0.0
 10
143.306158
 20
85.610832
 30
0.0
 10
143.347375
 20
83.047750
 30
0.0
 10
143.805641
 20
78.032656
 30
0.0
 10
144.198385
 20
76.176848
 30
0.0
 10
144.684000
 20
75.153000
 30
0.0
 10
146.019219
 20
74.161594
 30
0.0
 10
146.509418
 20
74.084074
 30
0.0
 10
146.893000
 20
74.298000
 30
0.0
 10
147.178707
 20
74.812863
 30
0.0
 10
147.375281
 20
75.638156
 30
0.0
 10
147.536000
 20
78.258000
 30
0.0
  0
LWPOLYLINE
  5
108
100
AcDbEntity
  8
0
 62
7
100
AcDbPolyline
 90
15
 70
1
 10
140.974000
 20
87.635000
 30
0.0
 10
140.705672
 20
88.567703
 30
0.0
 10
140.482625
 20
88.876125
 30
0.0
 10
140.210266
 20
88.558484
 30
0.0
 10
139.794000
 20
87.613000
 30
0.0
 10
139.573687
 20
86.790781
 30
0.0
 10
139.512750
 20
85.857000
 30
0.0
 10
139.608937
 20
84.926219
 30
0.0
 10
139.860000
 20
84.113000
 30
0.0
 10
140.312266
 20
83.184250
 30
0.0
 10
140.596625
 20
82.877250
 30
0.0
 10
140.807672
 20
83.193875
 30
0.0
 10
141.040000
 20
84.136000
 30
0.0
 10
141.179500
 20
85.888500
 30
0.0
 10
140.974000
 20
87.635000
 30
0.0
  0
LWPOLYLINE
  5
109
100
AcDbEntity
  8
0
 62
7
100
AcDbPolyline
 90
97
 70
1
 10
166.615000
 20
112.128000
 30
0.0
 10
169.085314
 20
113.944447
 30
0.0
 10
171.283391
 20
116.077078
 30
0.0
 10
173.198553
 20
118.505326
 30
0.0
 10
174.820125
 20
121.208625
 30
0.0
 10
176.137432
 20
124.166408
 30
0.0
 10
177.139797
 20
127.358109
 30
0.0
 10
177.816545
 20
130.763162
 30
0.0
 10
178.157000
 20
134.361000
 30
0.0
 10
178.245672
 20
138.460516
 30
0.0
 10
177.926625
 20
141.461375
 30
0.0
 10
177.004016
 20
144.282797
 30
0.0
 10
175.282000
 20
147.844000
 30
0.0
 10
173.852609
 20
150.416969
 30
0.0
 10
172.331625
 20
152.828500
 30
0.0
 10
170.900828
 20
154.808031
 30
0.0
 10
169.742000
 20
156.085000
 30
0.0
 10
165.462453
 20
159.286125
 30
0.0
 10
159.006875
 20
163.635500
 30
0.0
 10
152.401109
 20
167.810875
 30
0.0
 10
147.671000
 20
170.490000
 30
0.0
 10
143.314125
 20
172.863875
 30
0.0
 10
137.800000
 20
176.200000
 30
0.0
 10
134.438156
 20
178.471656
 30
0.0
 10
132.217250
 20
180.439000
 30
0.0
 10
131.391973
 20
181.465527
 30
0.0
 10
130.680719
 20
182.604344
 30
0.0
 10
129.372000
 20
185.470000
 30
0.0
 10
128.278592
 20
188.567584
 30
0.0
 10
127.560359
 20
191.444984
 30
0.0
 10
127.219541
 20
194.126049
 30
0.0
 10
127.258375
 20
196.634625
 30
0.0
 10
127.679100
 20
198.994561
 30
0.0
 10
128.483953
 20
201.229703
 30
0.0
 10
129.675174
 20
203.363900
 30
0.0
 10
131.255000
 20
205.421000
 30
0.0
 10
132.092750
 20
206.513145
 30
0.0
 10
132.561688
 20
207.499094
 30
0.0
 10
132.638469
 20
208.415996
 30
0.0
 10
132.299750
 20
209.301000
 30
0.0
 10
131.522188
 20
210.191254
 30
0.0
 10
130.282438
 20
211.123906
 30
0.0
 10
126.323000
 20
213.265000
 30
0.0
 10
120.589000
 20
216.021000
 30
0.0
 10
117.157000
 20
211.955000
 30
0.0
 10
115.323607
 20
209.627090
 30
0.0
 10
113.807734
 20
207.340406
 30
0.0
 10
112.589588
 20
205.035020
 30
0.0
 10
111.649375
 20
202.651000
 30
0.0
 10
110.967303
 20
200.128418
 30
0.0
 10
110.523578
 20
197.407344
 30
0.0
 10
110.298408
 20
194.427848
 30
0.0
 10
110.272000
 20
191.130000
 30
0.0
 10
110.464078
 20
186.749094
 30
0.0
 10
110.962625
 20
183.410500
 30
0.0
 10
111.945859
 20
180.344906
 30
0.0
 10
113.592000
 20
176.783000
 30
0.0
 10
115.126814
 20
174.036930
 30
0.0
 10
116.940641
 20
171.358312
 30
0.0
 10
119.013428
 20
168.767164
 30
0.0
 10
121.325125
 20
166.283500
 30
0.0
 10
123.855682
 20
163.927336
 30
0.0
 10
126.585047
 20
161.718687
 30
0.0
 10
129.493170
 20
159.677570
 30
0.0
 10
132.560000
 20
157.824000
 30
0.0
 10
141.522719
 20
152.583828
 30
0.0
 10
149.018250
 20
147.738625
 30
0.0
 10
152.039746
 20
145.585221
 30
0.0
 10
154.483156
 20
143.675859
 30
0.0
 10
156.278051
 20
142.058975
 30
0.0
 10
157.354000
 20
140.783000
 30
0.0
 10
158.111172
 20
139.303500
 30
0.0
 10
158.742625
 20
137.522500
 30
0.0
 10
159.182266
 20
135.664250
 30
0.0
 10
159.364000
 20
133.953000
 30
0.0
 10
159.271686
 20
132.353344
 30
0.0
 10
158.956234
 20
130.596750
 30
0.0
 10
158.449885
 20
128.762531
 30
0.0
 10
157.784875
 20
126.930000
 30
0.0
 10
156.993443
 20
125.178469
 30
0.0
 10
156.107828
 20
123.587250
 30
0.0
 10
155.160268
 20
122.235656
 30
0.0
 10
154.183000
 20
121.203000
 30
0.0
 10
153.371039
 20
120.344211
 30
0.0
 10
152.890812
 20
119.453500
 30
0.0
 10
152.742930
 20
118.529227
 30
0.0
 10
152.928000
 20
117.569750
 30
0.0
 10
153.446633
 20
116.573430
 30
0.0
 10
154.299437
 20
115.538625
 30
0.0
 10
155.487023
 20
114.463695
 30
0.0
 10
157.010000
 20
113.347000
 30
0.0
 10
160.161437
 20
111.367359
 30
0.0
 10
161.336328
 20
110.823361
 30
0.0
 10
162.357750
 20
110.562125
 30
0.0
 10
163.311016
 20
110.572811
 30
0.0
 10
164.281437
 20
110.844578
 30
0.0
 10
166.615000
 20
112.128000
 30
0.0
  0
LWPOLYLINE
  5
10a
100
AcDbEntity
  8
0
 62
7
100
AcDbPolyline
 90
23
 70
1
 10
148.508000
 20
127.036000
 30
0.0
 10
148.475062
 20
134.924703
 30
0.0
 10
148.351555
 20
137.435342
 30
0.0
 10
148.108000
 20
139.217625
 30
0.0
 10
147.707883
 20
140.442143
 30
0.0
 10
147.114687
 20
141.279484
 30
0.0
 10
146.291898
 20
141.900240
 30
0.0
 10
145.203000
 20
142.475000
 30
0.0
 10
142.174000
 20
143.969000
 30
0.0
 10
142.374000
 20
133.485000
 30
0.0
 10
142.545734
 20
127.778359
 30
0.0
 10
142.898875
 20
124.356875
 30
0.0
 10
143.194771
 20
123.239600
 30
0.0
 10
143.597578
 20
122.377453
 30
0.0
 10
144.127814
 20
121.665049
 30
0.0
 10
144.806000
 20
120.997000
 30
0.0
 10
145.730391
 20
120.280391
 30
0.0
 10
146.595625
 20
119.809125
 30
0.0
 10
147.305047
 20
119.623797
 30
0.0
 10
147.762000
 20
119.765000
 30
0.0
 10
148.044219
 20
120.576672
 30
0.0
 10
148.279000
 20
122.218125
 30
0.0
 10
148.508000
 20
127.036000
 30
0.0
  0
LWPOLYLINE
  5
10b
100
AcDbEntity
  8
0
 62
7
100
AcDbPolyline
 90
18
 70
1
 10
154.816000
 20
130.336000
 30
0.0
 10
154.759166
 20
132.100807
 30
0.0
 10
154.548828
 20
133.305141
 30
0.0
 10
154.230982
 20
133.964248
 30
0.0
 10
153.851625
 20
134.093375
 30
0.0
 10
153.456752
 20
133.707768
 30
0.0
 10
153.092359
 20
132.822672
 30
0.0
 10
152.804443
 20
131.453334
 30
0.0
 10
152.639000
 20
129.615000
 30
0.0
 10
152.591594
 20
127.259734
 30
0.0
 10
152.715750
 20
125.916125
 30
0.0
 10
152.851012
 20
125.588389
 30
0.0
 10
153.039781
 20
125.471203
 30
0.0
 10
153.592000
 20
125.812000
 30
0.0
 10
154.049594
 20
126.540812
 30
0.0
 10
154.432750
 20
127.636750
 30
0.0
 10
154.701531
 20
128.951312
 30
0.0
 10
154.816000
 20
130.336000
 30
0.0
  0
LWPOLYLINE
  5
10c
100
AcDbEntity
  8
0
 62
7
100
AcDbPolyline
 90
18
 70
1
 10
139.543000
 20
136.049000
 30
0.0
 10
139.011697
 20
136.334740
 30
0.0
 10
138.538953
 20
136.174922
 30
0.0
 10
138.143764
 20
135.643736
 30
0.0
 10
137.845125
 20
134.815375
 30
0.0
 10
137.662033
 20
133.764029
 30
0.0
 10
137.613484
 20
132.563891
 30
0.0
 10
137.718475
 20
131.289150
 30
0.0
 10
137.996000
 20
130.014000
 30
0.0
 10
138.462094
 20
128.564687
 30
0.0
 10
138.637355
 20
128.243672
 30
0.0
 10
138.799000
 20
128.209250
 30
0.0
 10
139.156156
 20
129.052687
 30
0.0
 10
139.683000
 20
131.200000
 30
0.0
 10
140.010578
 20
132.945687
 30
0.0
 10
140.096375
 20
134.336250
 30
0.0
 10
139.940484
 20
135.370937
 30
0.0
 10
139.543000
 20
136.049000
 30
0.0
  0
LWPOLYLINE
  5
10d
100
AcDbEntity
  8
0
 62
7
100
AcDbPolyline
 90
125
 70
1
 10
170.672000
 20
168.941000
 30
0.0
 10
173.552189
 20
171.390432
 30
0.0
 10
176.024391
 20
174.033141
 30
0.0
 10
178.094803
 20
176.882498
 30
0.0
 10
179.769625
 20
179.951875
 30
0.0
 10
181.055057
 20
183.254643
 30
0.0
 10
181.957297
 20
186.804172
 30
0.0
 10
182.482545
 20
190.613834
 30
0.0
 10
182.637000
 20
194.697000
 30
0.0
 10
182.500547
 20
197.863578
 30
0.0
 10
182.123625
 20
200.582875
 30
0.0
 10
181.485141
 20
202.959984
 30
0.0
 10
180.564000
 20
205.100000
 30
0.0
 10
179.543121
 20
206.751775
 30
0.0
 10
178.054031
 20
208.770641
 30
0.0
 10
174.328500
 20
213.183875
 30
0.0
 10
170.701969
 20
216.888172
 30
0.0
 10
169.336629
 20
218.020865
 30
0.0
 10
168.489000
 20
218.432000
 30
0.0
 10
166.094250
 20
219.540500
 30
0.0
 10
161.307000
 20
222.224000
 30
0.0
 10
157.834609
 20
223.992609
 30
0.0
 10
153.243125
 20
225.951625
 30
0.0
 10
148.081078
 20
227.882328
 30
0.0
 10
142.897000
 20
229.566000
 30
0.0
 10
138.058984
 20
231.097037
 30
0.0
 10
133.642187
 20
232.694297
 30
0.0
 10
129.645484
 20
234.358377
 30
0.0
 10
126.067750
 20
236.089875
 30
0.0
 10
122.907859
 20
237.889389
 30
0.0
 10
120.164687
 20
239.757516
 30
0.0
 10
117.837109
 20
241.694854
 30
0.0
 10
115.924000
 20
243.702000
 30
0.0
 10
114.372359
 20
245.793219
 30
0.0
 10
113.338125
 20
247.864000
 30
0.0
 10
112.685828
 20
250.274531
 30
0.0
 10
112.280000
 20
253.385000
 30
0.0
 10
112.110219
 20
257.132906
 30
0.0
 10
112.237285
 20
258.296152
 30
0.0
 10
112.519250
 20
259.003750
 30
0.0
 10
112.966309
 20
259.269316
 30
0.0
 10
113.588656
 20
259.106469
 30
0.0
 10
114.396488
 20
258.528824
 30
0.0
 10
115.400000
 20
257.550000
 30
0.0
 10
116.235615
 20
256.799759
 30
0.0
 10
117.192762
 20
256.183490
 30
0.0
 10
118.254270
 20
255.698692
 30
0.0
 10
119.402969
 20
255.342859
 30
0.0
 10
121.893254
 20
255.008080
 30
0.0
 10
124.526250
 20
255.159125
 30
0.0
 10
127.164590
 20
255.775967
 30
0.0
 10
129.670906
 20
256.838578
 30
0.0
 10
131.907832
 20
258.326932
 30
0.0
 10
132.882346
 20
259.224503
 30
0.0
 10
133.738000
 20
260.221000
 30
0.0
 10
134.454205
 20
261.281240
 30
0.0
 10
134.939516
 20
262.260609
 30
0.0
 10
135.194225
 20
263.156705
 30
0.0
 10
135.218625
 20
263.967125
 30
0.0
 10
135.013010
 20
264.689467
 30
0.0
 10
134.577672
 20
265.321328
 30
0.0
 10
133.912904
 20
265.860307
 30
0.0
 10
133.019000
 20
266.304000
 30
0.0
 10
130.205066
 20
267.197615
 30
0.0
 10
127.307156
 20
267.719734
 30
0.0
 10
124.365605
 20
267.875643
 30
0.0
 10
121.420750
 20
267.670625
 30
0.0
 10
118.512926
 20
267.109967
 30
0.0
 10
115.682469
 20
266.198953
 30
0.0
 10
112.969715
 20
264.942869
 30
0.0
 10
110.415000
 20
263.347000
 30
0.0
 10
108.927647
 20
262.186125
 30
0.0
 10
107.584705
 20
260.941762
 30
0.0
 10
106.387665
 20
259.620495
 30
0.0
 10
105.338016
 20
258.228906
 30
0.0
 10
104.437247
 20
256.773580
 30
0.0
 10
103.686850
 20
255.261098
 30
0.0
 10
103.088312
 20
253.698043
 30
0.0
 10
102.643125
 20
252.091000
 30
0.0
 10
102.352778
 20
250.446550
 30
0.0
 10
102.218760
 20
248.771277
 30
0.0
 10
102.242561
 20
247.071764
 30
0.0
 10
102.425672
 20
245.354594
 30
0.0
 10
102.769581
 20
243.626349
 30
0.0
 10
103.275779
 20
241.893613
 30
0.0
 10
103.945756
 20
240.162969
 30
0.0
 10
104.781000
 20
238.441000
 30
0.0
 10
106.624174
 20
235.375383
 30
0.0
 10
108.796141
 20
232.572875
 30
0.0
 10
111.455818
 20
229.919617
 30
0.0
 10
114.762125
 20
227.301750
 30
0.0
 10
118.873979
 20
224.605414
 30
0.0
 10
123.950297
 20
221.716750
 30
0.0
 10
130.149998
 20
218.521898
 30
0.0
 10
137.632000
 20
214.907000
 30
0.0
 10
148.804625
 20
209.503609
 30
0.0
 10
152.703484
 20
207.468096
 30
0.0
 10
155.706000
 20
205.735125
 30
0.0
 10
157.983641
 20
204.198514
 30
0.0
 10
159.707875
 20
202.752078
 30
0.0
 10
161.050172
 20
201.289635
 30
0.0
 10
162.182000
 20
199.705000
 30
0.0
 10
162.854015
 20
198.510277
 30
0.0
 10
163.382826
 20
197.242309
 30
0.0
 10
164.019922
 20
194.526094
 30
0.0
 10
164.111463
 20
191.635270
 30
0.0
 10
163.675625
 20
188.648750
 30
0.0
 10
162.730584
 20
185.645449
 30
0.0
 10
161.294516
 20
182.704281
 30
0.0
 10
159.385596
 20
179.904160
 30
0.0
 10
157.022000
 20
177.324000
 30
0.0
 10
154.790344
 20
174.947609
 30
0.0
 10
154.150051
 20
173.971377
 30
0.0
 10
153.817750
 20
173.094625
 30
0.0
 10
153.786668
 20
172.285982
 30
0.0
 10
154.050031
 20
171.514078
 30
0.0
 10
154.601066
 20
170.747541
 30
0.0
 10
155.433000
 20
169.955000
 30
0.0
 10
157.637953
 20
168.398656
 30
0.0
 10
160.293375
 20
166.927250
 30
0.0
 10
162.819609
 20
165.828219
 30
0.0
 10
164.637000
 20
165.389000
 30
0.0
 10
165.536094
 20
165.665281
 30
0.0
 10
166.973500
 20
166.427000
 30
0.0
 10
170.672000
 20
168.941000
 30
0.0
  0
LWPOLYLINE
  5
10e
100
AcDbEntity
  8
0
 62
7
100
AcDbPolyline
 90
30
 70
1
 10
149.825000
 20
187.242000
 30
0.0
 10
150.058594
 20
194.838859
 30
0.0
 10
149.934250
 20
198.955625
 30
0.0
 10
149.683652
 20
200.134217
 30
0.0
 10
149.278531
 20
200.953078
 30
0.0
 10
148.697207
 20
201.582307
 30
0.0
 10
147.918000
 20
202.192000
 30
0.0
 10
145.673844
 20
203.634891
 30
0.0
 10
143.684500
 20
204.492125
 30
0.0
 10
142.107656
 20
204.715797
 30
0.0
 10
141.523199
 20
204.575076
 30
0.0
 10
141.101000
 20
204.258000
 30
0.0
 10
140.891094
 20
202.875406
 30
0.0
 10
140.843750
 20
199.749250
 30
0.0
 10
141.221000
 20
190.121000
 30
0.0
 10
141.739297
 20
182.595016
 30
0.0
 10
142.281125
 20
178.481625
 30
0.0
 10
142.649896
 20
177.317025
 30
0.0
 10
143.131391
 20
176.540422
 30
0.0
 10
143.761221
 20
175.996764
 30
0.0
 10
144.575000
 20
175.531000
 30
0.0
 10
146.108410
 20
174.772771
 30
0.0
 10
147.276594
 20
174.393797
 30
0.0
 10
147.741633
 20
174.386472
 30
0.0
 10
148.136855
 20
174.521893
 30
0.0
 10
148.469423
 20
174.816034
 30
0.0
 10
148.746500
 20
175.284875
 30
0.0
 10
149.162832
 20
176.810561
 30
0.0
 10
149.443156
 20
179.226766
 30
0.0
 10
149.825000
 20
187.242000
 30
0.0
  0
LWPOLYLINE
  5
10f
100
AcDbEntity
  8
0
 62
7
100
AcDbPolyline
 90
24
 70
1
 10
157.906000
 20
182.527000
 30
0.0
 10
158.745193
 20
184.035713
 30
0.0
 10
159.356984
 20
185.528828
 30
0.0
 10
159.741314
 20
187.004061
 30
0.0
 10
159.898125
 20
188.459125
 30
0.0
 10
159.827357
 20
189.891736
 30
0.0
 10
159.528953
 20
191.299609
 30
0.0
 10
159.002854
 20
192.680459
 30
0.0
 10
158.249000
 20
194.032000
 30
0.0
 10
157.349937
 20
195.248344
 30
0.0
 10
156.467750
 20
196.150250
 30
0.0
 10
155.703687
 20
196.651281
 30
0.0
 10
155.159000
 20
196.665000
 30
0.0
 10
154.938854
 20
196.344437
 30
0.0
 10
154.754486
 20
195.720117
 30
0.0
 10
154.489766
 20
193.739437
 30
0.0
 10
154.353125
 20
188.104500
 30
0.0
 10
154.695922
 20
182.627812
 30
0.0
 10
155.030498
 20
180.844945
 30
0.0
 10
155.235674
 20
180.349204
 30
0.0
 10
155.465000
 20
180.177000
 30
0.0
 10
155.959750
 20
180.368547
 30
0.0
 10
156.585000
 20
180.875375
 30
0.0
 10
157.906000
 20
182.527000
 30
0.0
  0
LWPOLYLINE
  5
110
100
AcDbEntity
  8
0
 62
7
100
AcDbPolyline
 90
25
 70
1
 10
138.292000
 20
190.353000
 30
0.0
 10
138.139719
 20
195.073812
 30
0.0
 10
137.858250
 20
197.974750
 30
0.0
 10
137.648621
 20
198.860422
 30
0.0
 10
137.382156
 20
199.432312
 30
0.0
 10
137.050676
 20
199.737484
 30
0.0
 10
136.646000
 20
199.823000
 30
0.0
 10
136.026186
 20
199.707639
 30
0.0
 10
135.446672
 20
199.384984
 30
0.0
 10
134.906979
 20
198.854182
 30
0.0
 10
134.406625
 20
198.114375
 30
0.0
 10
133.522016
 20
196.004328
 30
0.0
 10
132.789000
 20
193.048000
 30
0.0
 10
132.627094
 20
191.335578
 30
0.0
 10
132.809250
 20
189.526875
 30
0.0
 10
133.349531
 20
187.547734
 30
0.0
 10
134.262000
 20
185.324000
 30
0.0
 10
135.370854
 20
183.107371
 30
0.0
 10
136.282891
 20
181.673906
 30
0.0
 10
137.010076
 20
181.038488
 30
0.0
 10
137.308089
 20
181.024698
 30
0.0
 10
137.564375
 20
181.216000
 30
0.0
 10
137.957752
 20
182.221324
 30
0.0
 10
138.202172
 20
184.069344
 30
0.0
 10
138.292000
 20
190.353000
 30
0.0
  0
LWPOLYLINE
  5
111
100
AcDbEntity
  8
0
 62
7
100
AcDbPolyline
 90
75
 70
1
 10
171.980000
 20
223.632000
 30
0.0
 10
175.426625
 20
225.843236
 30
0.0
 10
178.664375
 20
228.579766
 30
0.0
 10
181.625187
 20
231.740068
 30
0.0
 10
184.241000
 20
235.222625
 30
0.0
 10
186.443750
 20
238.925916
 30
0.0
 10
188.165375
 20
242.748422
 30
0.0
 10
189.337812
 20
246.588623
 30
0.0
 10
189.696816
 20
248.483635
 30
0.0
 10
189.893000
 20
250.345000
 30
0.0
 10
190.010625
 20
253.740844
 30
0.0
 10
189.926398
 20
254.981512
 30
0.0
 10
189.711250
 20
256.040000
 30
0.0
 10
189.338508
 20
257.008301
 30
0.0
 10
188.781500
 20
257.978406
 30
0.0
 10
187.008000
 20
260.292000
 30
0.0
 10
185.111299
 20
262.408523
 30
0.0
 10
183.168391
 20
264.206812
 30
0.0
 10
181.159318
 20
265.696570
 30
0.0
 10
179.064125
 20
266.887500
 30
0.0
 10
176.862854
 20
267.789305
 30
0.0
 10
174.535547
 20
268.411687
 30
0.0
 10
172.062248
 20
268.764352
 30
0.0
 10
169.423000
 20
268.857000
 30
0.0
 10
167.008619
 20
268.736986
 30
0.0
 10
164.765016
 20
268.448703
 30
0.0
 10
162.731623
 20
268.007537
 30
0.0
 10
160.947875
 20
267.428875
 30
0.0
 10
159.453205
 20
266.728104
 30
0.0
 10
158.287047
 20
265.920609
 30
0.0
 10
157.488834
 20
265.021779
 30
0.0
 10
157.098000
 20
264.047000
 30
0.0
 10
157.220203
 20
263.146594
 30
0.0
 10
157.766625
 20
261.928750
 30
0.0
 10
158.649234
 20
260.553031
 30
0.0
 10
159.780000
 20
259.179000
 30
0.0
 10
161.536906
 20
257.491672
 30
0.0
 10
162.373160
 20
256.913338
 30
0.0
 10
163.267000
 20
256.478125
 30
0.0
 10
165.484594
 20
255.935766
 30
0.0
 10
168.704000
 20
255.662000
 30
0.0
 10
171.962000
 20
255.576750
 30
0.0
 10
174.173000
 20
255.841750
 30
0.0
 10
175.061656
 20
256.151414
 30
0.0
 10
175.899500
 20
256.603625
 30
0.0
 10
177.704000
 20
258.009000
 30
0.0
 10
180.036625
 20
259.893750
 30
0.0
 10
181.368000
 20
260.685000
 30
0.0
 10
181.595971
 20
260.339262
 30
0.0
 10
181.660453
 20
259.396594
 30
0.0
 10
181.389375
 20
256.359750
 30
0.0
 10
180.735609
 20
252.853031
 30
0.0
 10
179.880000
 20
250.155000
 30
0.0
 10
178.333869
 20
247.436123
 30
0.0
 10
176.340516
 20
244.727172
 30
0.0
 10
173.974998
 20
242.092916
 30
0.0
 10
171.312375
 20
239.598125
 30
0.0
 10
168.427705
 20
237.307568
 30
0.0
 10
165.396047
 20
235.286016
 30
0.0
 10
162.292459
 20
233.598236
 30
0.0
 10
159.192000
 20
232.309000
 30
0.0
 10
157.558604
 20
231.639498
 30
0.0
 10
156.467141
 20
230.942422
 30
0.0
 10
155.923576
 20
230.200416
 30
0.0
 10
155.933875
 20
229.396125
 30
0.0
 10
156.504002
 20
228.512193
 30
0.0
 10
157.639922
 20
227.531266
 30
0.0
 10
159.347600
 20
226.435986
 30
0.0
 10
161.633000
 20
225.209000
 30
0.0
 10
165.415062
 20
223.410797
 30
0.0
 10
166.796328
 20
222.894822
 30
0.0
 10
167.950250
 20
222.617125
 30
0.0
 10
168.961203
 20
222.564850
 30
0.0
 10
169.913563
 20
222.725141
 30
0.0
 10
171.980000
 20
223.632000
 30
0.0
  0
LWPOLYLINE
  5
112
100
AcDbEntity
  8
0
 62
7
100
AcDbPolyline
 90
26
 70
1
 10
150.637000
 20
232.345000
 30
0.0
 10
151.133750
 20
241.983375
 30
0.0
 10
151.815000
 20
266.624000
 30
0.0
 10
152.382625
 20
285.350375
 30
0.0
 10
152.831000
 20
293.840000
 30
0.0
 10
153.074625
 20
298.155500
 30
0.0
 10
153.148000
 20
306.848000
 30
0.0
 10
153.101000
 20
318.658000
 30
0.0
 10
146.238000
 20
319.216000
 30
0.0
 10
141.302375
 20
319.518875
 30
0.0
 10
139.072000
 20
319.461000
 30
0.0
 10
138.956625
 20
306.879875
 30
0.0
 10
139.103000
 20
277.075000
 30
0.0
 10
139.324344
 20
256.536578
 30
0.0
 10
139.629500
 20
243.496375
 30
0.0
 10
140.071906
 20
236.530984
 30
0.0
 10
140.361277
 20
234.881529
 30
0.0
 10
140.705000
 20
234.217000
 30
0.0
 10
142.518547
 20
233.326766
 30
0.0
 10
145.010375
 20
232.362375
 30
0.0
 10
147.490016
 20
231.568047
 30
0.0
 10
149.267000
 20
231.188000
 30
0.0
 10
149.762172
 20
231.249953
 30
0.0
 10
150.185625
 20
231.488625
 30
0.0
 10
150.492266
 20
231.866234
 30
0.0
 10
150.637000
 20
232.345000
 30
0.0
  0
LWPOLYLINE
  5
113
100
AcDbEntity
  8
0
 62
7
100
AcDbPolyline
 90
52
 70
1
 10
161.728000
 20
236.233000
 30
0.0
 10
163.522016
 20
237.223475
 30
0.0
 10
165.438000
 20
238.492422
 30
0.0
 10
169.188500
 20
241.469875
 30
0.0
 10
170.799328
 20
242.980451
 30
0.0
 10
172.084750
 20
244.373641
 30
0.0
 10
172.932922
 20
245.550479
 30
0.0
 10
173.232000
 20
246.412000
 30
0.0
 10
173.105156
 20
246.842562
 30
0.0
 10
172.776000
 20
247.191000
 30
0.0
 10
172.294594
 20
247.421687
 30
0.0
 10
171.711000
 20
247.499000
 30
0.0
 10
171.146625
 20
247.578375
 30
0.0
 10
170.718750
 20
247.816000
 30
0.0
 10
170.469000
 20
248.175125
 30
0.0
 10
170.439000
 20
248.619000
 30
0.0
 10
170.253172
 20
249.134062
 30
0.0
 10
169.577875
 20
249.687000
 30
0.0
 10
168.519891
 20
250.211437
 30
0.0
 10
167.186000
 20
250.641000
 30
0.0
 10
165.551078
 20
251.220687
 30
0.0
 10
163.672125
 20
252.152500
 30
0.0
 10
161.781359
 20
253.307812
 30
0.0
 10
160.111000
 20
254.558000
 30
0.0
 10
156.516000
 20
257.602000
 30
0.0
 10
156.335000
 20
251.286000
 30
0.0
 10
156.356125
 20
246.682625
 30
0.0
 10
156.478016
 20
245.170641
 30
0.0
 10
156.660000
 20
244.483000
 30
0.0
 10
157.213766
 20
244.423656
 30
0.0
 10
158.346625
 20
244.621000
 30
0.0
 10
161.690000
 20
245.635000
 30
0.0
 10
163.692195
 20
246.298301
 30
0.0
 10
165.085625
 20
246.633781
 30
0.0
 10
165.877180
 20
246.667434
 30
0.0
 10
166.049407
 20
246.579197
 30
0.0
 10
166.073750
 20
246.425250
 30
0.0
 10
165.682227
 20
245.933223
 30
0.0
 10
164.709500
 20
245.217344
 30
0.0
 10
161.048000
 20
243.218000
 30
0.0
 10
157.923984
 20
241.429328
 30
0.0
 10
156.844314
 20
240.549271
 30
0.0
 10
156.071125
 20
239.656875
 30
0.0
 10
155.593107
 20
238.735744
 30
0.0
 10
155.398953
 20
237.769484
 30
0.0
 10
155.477354
 20
236.741701
 30
0.0
 10
155.817000
 20
235.636000
 30
0.0
 10
156.352891
 20
234.621437
 30
0.0
 10
156.699826
 20
234.389289
 30
0.0
 10
157.182875
 20
234.349000
 30
0.0
 10
158.807672
 20
234.869312
 30
0.0
 10
161.728000
 20
236.233000
 30
0.0
  0
LWPOLYLINE
  5
114
100
AcDbEntity
  8
0
 62
7
100
AcDbPolyline
 90
23
 70
1
 10
137.141000
 20
238.022000
 30
0.0
 10
136.370346
 20
238.906217
 30
0.0
 10
134.774703
 20
240.118922
 30
0.0
 10
130.103375
 20
242.976625
 30
0.0
 10
125.116859
 20
245.488766
 30
0.0
 10
123.127232
 20
246.269518
 30
0.0
 10
121.805000
 20
246.549000
 30
0.0
 10
120.861703
 20
246.434031
 30
0.0
 10
120.670350
 20
246.273832
 30
0.0
 10
120.676375
 20
246.014000
 30
0.0
 10
121.312109
 20
245.101969
 30
0.0
 10
122.832000
 20
243.511000
 30
0.0
 10
125.313338
 20
241.288676
 30
0.0
 10
127.961141
 20
239.365531
 30
0.0
 10
130.593217
 20
237.811434
 30
0.0
 10
133.027375
 20
236.696250
 30
0.0
 10
135.081424
 20
236.089848
 30
0.0
 10
135.908972
 20
235.999273
 30
0.0
 10
136.573172
 20
236.062094
 30
0.0
 10
137.051248
 20
236.287043
 30
0.0
 10
137.320428
 20
236.682855
 30
0.0
 10
137.357936
 20
237.258263
 30
0.0
 10
137.141000
 20
238.022000
 30
0.0
  0
LWPOLYLINE
  5
115
100
AcDbEntity
  8
0
 62
7
100
AcDbPolyline
 90
17
 70
1
 10
136.461000
 20
244.578000
 30
0.0
 10
136.858000
 20
247.771375
 30
0.0
 10
137.008250
 20
251.844500
 30
0.0
 10
136.903125
 20
255.347625
 30
0.0
 10
136.752102
 20
256.432391
 30
0.0
 10
136.534000
 20
256.831000
 30
0.0
 10
135.160375
 20
256.097500
 30
0.0
 10
132.757000
 20
254.350000
 30
0.0
 10
129.543750
 20
252.180750
 30
0.0
 10
126.224000
 20
250.433000
 30
0.0
 10
122.829000
 20
248.986000
 30
0.0
 10
128.808000
 20
246.039000
 30
0.0
 10
133.047891
 20
243.976687
 30
0.0
 10
135.218625
 20
243.144750
 30
0.0
 10
135.770900
 20
243.143766
 30
0.0
 10
136.097297
 20
243.394687
 30
0.0
 10
136.461000
 20
244.578000
 30
0.0
  0
LWPOLYLINE
  5
116
100
AcDbEntity
  8
0
 62
7
100
AcDbPolyline
 90
50
 70
1
 10
196.489000
 20
266.453000
 30
0.0
 10
199.933625
 20
270.427375
 30
0.0
 10
202.308000
 20
273.579000
 30
0.0
 10
203.142000
 20
275.136906
 30
0.0
 10
203.235141
 20
275.792332
 30
0.0
 10
203.062500
 20
276.480500
 30
0.0
 10
202.586672
 20
277.287730
 30
0.0
 10
201.770250
 20
278.300344
 30
0.0
 10
198.966000
 20
281.287000
 30
0.0
 10
195.239625
 20
285.013250
 30
0.0
 10
193.236000
 20
286.749000
 30
0.0
 10
192.583578
 20
286.551781
 30
0.0
 10
191.381125
 20
285.779500
 30
0.0
 10
188.012000
 20
283.001000
 30
0.0
 10
185.635578
 20
280.927783
 30
0.0
 10
183.418812
 20
279.226203
 30
0.0
 10
181.285203
 20
277.863740
 30
0.0
 10
179.158250
 20
276.807875
 30
0.0
 10
176.961453
 20
276.026088
 30
0.0
 10
174.618312
 20
275.485859
 30
0.0
 10
172.052328
 20
275.154670
 30
0.0
 10
169.187000
 20
275.000000
 30
0.0
 10
163.507625
 20
275.007375
 30
0.0
 10
159.680000
 20
275.275000
 30
0.0
 10
158.322078
 20
275.423000
 30
0.0
 10
157.883146
 20
275.335891
 30
0.0
 10
157.575875
 20
275.106000
 30
0.0
 10
157.271234
 20
274.111750
 30
0.0
 10
157.238000
 20
272.228000
 30
0.0
 10
157.384906
 20
270.035266
 30
0.0
 10
157.673762
 20
269.430529
 30
0.0
 10
158.236250
 20
269.124375
 30
0.0
 10
159.169895
 20
269.094924
 30
0.0
 10
160.572219
 20
269.320297
 30
0.0
 10
165.173000
 20
270.448000
 30
0.0
 10
167.641289
 20
270.876547
 30
0.0
 10
170.264687
 20
270.959812
 30
0.0
 10
172.978742
 20
270.714484
 30
0.0
 10
175.719000
 20
270.157250
 30
0.0
 10
178.421008
 20
269.304797
 30
0.0
 10
181.020312
 20
268.173812
 30
0.0
 10
183.452461
 20
266.780984
 30
0.0
 10
185.653000
 20
265.143000
 30
0.0
 10
188.744875
 20
262.863500
 30
0.0
 10
190.010266
 20
262.166812
 30
0.0
 10
190.861000
 20
261.907000
 30
0.0
 10
191.745016
 20
262.261250
 30
0.0
 10
193.100875
 20
263.236500
 30
0.0
 10
194.743797
 20
264.683500
 30
0.0
 10
196.489000
 20
266.453000
 30
0.0
  0
LWPOLYLINE
  5
117
100
AcDbEntity
  8
0
 62
7
100
AcDbPolyline
 90
51
 70
1
 10
107.781000
 20
264.676000
 30
0.0
 10
108.624937
 20
265.408516
 30
0.0
 10
110.089500
 20
266.358625
 30
0.0
 10
114.057000
 20
268.420000
 30
0.0
 10
116.900000
 20
269.572312
 30
0.0
 10
119.422750
 20
270.213500
 30
0.0
 10
122.119875
 20
270.424187
 30
0.0
 10
125.486000
 20
270.285000
 30
0.0
 10
130.478375
 20
269.672000
 30
0.0
 10
132.429922
 20
269.264344
 30
0.0
 10
133.661000
 20
268.852000
 30
0.0
 10
135.149109
 20
268.328297
 30
0.0
 10
135.691924
 20
268.366580
 30
0.0
 10
136.112125
 20
268.616375
 30
0.0
 10
136.418373
 20
269.086248
 30
0.0
 10
136.619328
 20
269.784766
 30
0.0
 10
136.740000
 20
271.902000
 30
0.0
 10
136.688000
 20
274.631000
 30
0.0
 10
128.440000
 20
274.448000
 30
0.0
 10
124.260375
 20
274.458078
 30
0.0
 10
120.958250
 20
274.734125
 30
0.0
 10
118.173250
 20
275.327609
 30
0.0
 10
115.545000
 20
276.290000
 30
0.0
 10
113.823982
 20
277.183098
 30
0.0
 10
111.950609
 20
278.404531
 30
0.0
 10
108.053875
 20
281.554250
 30
0.0
 10
104.468953
 20
285.182844
 30
0.0
 10
102.985346
 20
287.002871
 30
0.0
 10
101.810000
 20
288.734000
 30
0.0
 10
101.068016
 20
289.644469
 30
0.0
 10
100.656998
 20
289.746254
 30
0.0
 10
100.149875
 20
289.573750
 30
0.0
 10
98.639047
 20
288.289906
 30
0.0
 10
96.119000
 20
285.561000
 30
0.0
 10
92.912500
 20
281.596250
 30
0.0
 10
91.942719
 20
280.094906
 30
0.0
 10
91.593000
 20
279.193000
 30
0.0
 10
91.801205
 20
277.999127
 30
0.0
 10
92.351891
 20
276.549516
 30
0.0
 10
93.193787
 20
274.920303
 30
0.0
 10
94.275625
 20
273.187625
 30
0.0
 10
96.954047
 20
269.716422
 30
0.0
 10
98.448092
 20
268.130170
 30
0.0
 10
99.977000
 20
266.745000
 30
0.0
 10
102.923813
 20
264.497969
 30
0.0
 10
104.044438
 20
263.834379
 30
0.0
 10
104.985250
 20
263.462750
 30
0.0
 10
105.787781
 20
263.372090
 30
0.0
 10
106.493563
 20
263.551406
 30
0.0
 10
107.144125
 20
263.989707
 30
0.0
 10
107.781000
 20
264.676000
 30
0.0
  0
LWPOLYLINE
  5
118
100
AcDbEntity
  8
0
 62
7
100
AcDbPolyline
 90
37
 70
1
 10
219.057000
 20
278.012000
 30
0.0
 10
219.813924
 20
278.382016
 30
0.0
 10
220.295891
 20
278.775937
 30
0.0
 10
220.497193
 20
279.206328
 30
0.0
 10
220.412125
 20
279.685750
 30
0.0
 10
220.034979
 20
280.226766
 30
0.0
 10
219.360047
 20
280.841937
 30
0.0
 10
217.094000
 20
282.345000
 30
0.0
 10
215.359891
 20
283.690609
 30
0.0
 10
213.226875
 20
285.822125
 30
0.0
 10
210.965422
 20
288.446578
 30
0.0
 10
208.846000
 20
291.271000
 30
0.0
 10
206.217656
 20
294.921297
 30
0.0
 10
204.351500
 20
296.981875
 30
0.0
 10
203.545746
 20
297.551107
 30
0.0
 10
202.740344
 20
297.885016
 30
0.0
 10
201.871895
 20
298.037635
 30
0.0
 10
200.877000
 20
298.063000
 30
0.0
 10
198.563391
 20
297.823561
 30
0.0
 10
196.883813
 20
297.217922
 30
0.0
 10
196.282137
 20
296.783487
 30
0.0
 10
195.839391
 20
296.264354
 30
0.0
 10
195.555715
 20
295.662805
 30
0.0
 10
195.431250
 20
294.981125
 30
0.0
 10
195.660516
 20
293.386506
 30
0.0
 10
196.528313
 20
291.498766
 30
0.0
 10
198.035766
 20
289.336174
 30
0.0
 10
200.184000
 20
286.917000
 30
0.0
 10
203.755578
 20
283.549672
 30
0.0
 10
205.447365
 20
282.211283
 30
0.0
 10
207.115375
 20
281.078875
 30
0.0
 10
208.788775
 20
280.134295
 30
0.0
 10
210.496734
 20
279.359391
 30
0.0
 10
212.268420
 20
278.736010
 30
0.0
 10
214.133000
 20
278.246000
 30
0.0
 10
217.317000
 20
277.474000
 30
0.0
 10
219.057000
 20
278.012000
 30
0.0
  0
LWPOLYLINE
  5
119
100
AcDbEntity
  8
0
 62
7
100
AcDbPolyline
 90
124
 70
1
 10
133.210000
 20
280.324000
 30
0.0
 10
134.127266
 20
280.646000
 30
0.0
 10
134.861063
 20
281.211563
 30
0.0
 10
135.427516
 20
282.089406
 30
0.0
 10
135.842750
 20
283.348250
 30
0.0
 10
136.122891
 20
285.056812
 30
0.0
 10
136.284063
 20
287.283813
 30
0.0
 10
136.314000
 20
293.568000
 30
0.0
 10
136.171000
 20
301.802000
 30
0.0
 10
130.194000
 20
301.062000
 30
0.0
 10
124.217000
 20
300.322000
 30
0.0
 10
119.622000
 20
304.745000
 30
0.0
 10
117.732967
 20
306.690854
 30
0.0
 10
116.344359
 20
308.435953
 30
0.0
 10
115.451291
 20
310.024607
 30
0.0
 10
115.048875
 20
311.501125
 30
0.0
 10
115.132225
 20
312.909814
 30
0.0
 10
115.696453
 20
314.294984
 30
0.0
 10
116.736674
 20
315.700943
 30
0.0
 10
118.248000
 20
317.172000
 30
0.0
 10
119.811463
 20
318.661582
 30
0.0
 10
121.146328
 20
320.215031
 30
0.0
 10
122.257061
 20
321.842402
 30
0.0
 10
123.148125
 20
323.553750
 30
0.0
 10
123.823986
 20
325.359129
 30
0.0
 10
124.289109
 20
327.268594
 30
0.0
 10
124.547959
 20
329.292199
 30
0.0
 10
124.605000
 20
331.440000
 30
0.0
 10
124.426297
 20
334.152812
 30
0.0
 10
123.862375
 20
336.215750
 30
0.0
 10
122.689266
 20
338.143312
 30
0.0
 10
120.683000
 20
340.450000
 30
0.0
 10
118.709301
 20
342.334715
 30
0.0
 10
116.581031
 20
343.929719
 30
0.0
 10
114.282559
 20
345.240426
 30
0.0
 10
111.798250
 20
346.272250
 30
0.0
 10
109.112473
 20
347.030605
 30
0.0
 10
106.209594
 20
347.520906
 30
0.0
 10
103.073980
 20
347.748566
 30
0.0
 10
99.690000
 20
347.719000
 30
0.0
 10
95.706984
 20
347.403734
 30
0.0
 10
92.377875
 20
346.694625
 30
0.0
 10
88.851328
 20
345.334703
 30
0.0
 10
84.276000
 20
343.067000
 30
0.0
 10
76.769375
 20
338.866250
 30
0.0
 10
70.402000
 20
334.856000
 30
0.0
 10
56.582000
 20
325.221000
 30
0.0
 10
44.436578
 20
316.984031
 30
0.0
 10
39.087951
 20
313.575527
 30
0.0
 10
33.959625
 20
310.487250
 30
0.0
 10
28.854783
 20
307.604379
 30
0.0
 10
23.576609
 20
304.812094
 30
0.0
 10
11.713000
 20
299.040000
 30
0.0
 10
7.760000
 20
297.194000
 30
0.0
 10
10.621000
 20
295.764000
 30
0.0
 10
12.695273
 20
294.906080
 30
0.0
 10
14.965625
 20
294.295016
 30
0.0
 10
17.392727
 20
293.930725
 30
0.0
 10
19.937250
 20
293.813125
 30
0.0
 10
22.559867
 20
293.942135
 30
0.0
 10
25.221250
 20
294.317672
 30
0.0
 10
27.882070
 20
294.939654
 30
0.0
 10
30.503000
 20
295.808000
 30
0.0
 10
35.688674
 20
298.165662
 30
0.0
 10
42.132391
 20
301.645734
 30
0.0
 10
49.277193
 20
305.883096
 30
0.0
 10
56.566125
 20
310.512625
 30
0.0
 10
63.442229
 20
315.169201
 30
0.0
 10
69.348547
 20
319.487703
 30
0.0
 10
73.728123
 20
323.103010
 30
0.0
 10
75.171334
 20
324.532865
 30
0.0
 10
76.024000
 20
325.650000
 30
0.0
 10
76.849771
 20
326.957037
 30
0.0
 10
77.576297
 20
327.781484
 30
0.0
 10
78.202018
 20
328.124596
 30
0.0
 10
78.725375
 20
327.987625
 30
0.0
 10
79.144811
 20
327.371826
 30
0.0
 10
79.458766
 20
326.278453
 30
0.0
 10
79.764000
 20
322.664000
 30
0.0
 10
79.927496
 20
320.501013
 30
0.0
 10
80.325668
 20
318.388826
 30
0.0
 10
80.944920
 20
316.340034
 30
0.0
 10
81.771656
 20
314.367234
 30
0.0
 10
82.792279
 20
312.483022
 30
0.0
 10
83.993191
 20
310.699994
 30
0.0
 10
85.360797
 20
309.030746
 30
0.0
 10
86.881500
 20
307.487875
 30
0.0
 10
88.541703
 20
306.083976
 30
0.0
 10
90.327809
 20
304.831646
 30
0.0
 10
92.226221
 20
303.743482
 30
0.0
 10
94.223344
 20
302.832078
 30
0.0
 10
96.305580
 20
302.110032
 30
0.0
 10
98.459332
 20
301.589939
 30
0.0
 10
100.671004
 20
301.284397
 30
0.0
 10
102.927000
 20
301.206000
 30
0.0
 10
104.190109
 20
301.148922
 30
0.0
 10
105.227375
 20
300.951875
 30
0.0
 10
105.931453
 20
300.645891
 30
0.0
 10
106.195000
 20
300.262000
 30
0.0
 10
106.113359
 20
299.872125
 30
0.0
 10
105.876375
 20
299.549750
 30
0.0
 10
105.520703
 20
299.328250
 30
0.0
 10
105.083000
 20
299.241000
 30
0.0
 10
104.782470
 20
299.150015
 30
0.0
 10
104.558357
 20
298.901383
 30
0.0
 10
104.324984
 20
297.998375
 30
0.0
 10
104.354088
 20
296.666367
 30
0.0
 10
104.616875
 20
295.039750
 30
0.0
 10
105.084553
 20
293.252914
 30
0.0
 10
105.728328
 20
291.440250
 30
0.0
 10
106.519408
 20
289.736148
 30
0.0
 10
107.429000
 20
288.275000
 30
0.0
 10
108.685896
 20
286.794791
 30
0.0
 10
110.204484
 20
285.367141
 30
0.0
 10
111.933236
 20
284.022764
 30
0.0
 10
113.820625
 20
282.792375
 30
0.0
 10
115.815123
 20
281.706689
 30
0.0
 10
117.865203
 20
280.796422
 30
0.0
 10
119.919338
 20
280.092287
 30
0.0
 10
121.926000
 20
279.625000
 30
0.0
 10
124.514594
 20
279.276484
 30
0.0
 10
126.869750
 20
279.252625
 30
0.0
 10
129.574031
 20
279.589703
 30
0.0
 10
133.210000
 20
280.324000
 30
0.0
  0
LWPOLYLINE
  5
11a
100
AcDbEntity
  8
0
 62
7
100
AcDbPolyline
 90
37
 70
1
 10
242.570000
 20
281.830000
 30
0.0
 10
242.343453
 20
282.336859
 30
0.0
 10
241.740125
 20
282.995125
 30
0.0
 10
239.771000
 20
284.425000
 30
0.0
 10
234.752125
 20
287.472734
 30
0.0
 10
230.464500
 20
290.356125
 30
0.0
 10
226.814375
 20
293.142203
 30
0.0
 10
223.708000
 20
295.898000
 30
0.0
 10
218.876031
 20
300.497156
 30
0.0
 10
217.318316
 20
301.822848
 30
0.0
 10
216.137500
 20
302.597500
 30
0.0
 10
215.187121
 20
302.894777
 30
0.0
 10
214.320719
 20
302.788344
 30
0.0
 10
213.391832
 20
302.351863
 30
0.0
 10
212.254000
 20
301.659000
 30
0.0
 10
211.079594
 20
300.805000
 30
0.0
 10
210.122500
 20
299.860250
 30
0.0
 10
209.481156
 20
298.939875
 30
0.0
 10
209.254000
 20
298.159000
 30
0.0
 10
209.394220
 20
297.593826
 30
0.0
 10
209.779652
 20
296.876576
 30
0.0
 10
211.185031
 20
295.072984
 30
0.0
 10
213.267895
 20
292.922494
 30
0.0
 10
215.826000
 20
290.599375
 30
0.0
 10
218.657105
 20
288.277896
 30
0.0
 10
221.558969
 20
286.132328
 30
0.0
 10
224.329348
 20
284.336939
 30
0.0
 10
226.766000
 20
283.066000
 30
0.0
 10
229.006461
 20
282.260746
 30
0.0
 10
231.532625
 20
281.613156
 30
0.0
 10
234.163789
 20
281.137363
 30
0.0
 10
236.719250
 20
280.847500
 30
0.0
 10
239.018305
 20
280.757699
 30
0.0
 10
240.880250
 20
280.882094
 30
0.0
 10
242.124383
 20
281.234816
 30
0.0
 10
242.458300
 20
281.501217
 30
0.0
 10
242.570000
 20
281.830000
 30
0.0
  0
LWPOLYLINE
  5
11b
100
AcDbEntity
  8
0
 62
7
100
AcDbPolyline
 90
36
 70
1
 10
84.606000
 20
281.896000
 30
0.0
 10
86.343953
 20
282.964359
 30
0.0
 10
88.467125
 20
284.490125
 30
0.0
 10
92.794000
 20
288.099000
 30
0.0
 10
95.296889
 20
290.528219
 30
0.0
 10
97.116984
 20
292.551500
 30
0.0
 10
98.259057
 20
294.211406
 30
0.0
 10
98.727875
 20
295.550500
 30
0.0
 10
98.711304
 20
296.113043
 30
0.0
 10
98.528209
 20
296.611344
 30
0.0
 10
98.179185
 20
297.050723
 30
0.0
 10
97.664828
 20
297.436500
 30
0.0
 10
96.142502
 20
298.068531
 30
0.0
 10
93.966000
 20
298.550000
 30
0.0
 10
92.732613
 20
298.731631
 30
0.0
 10
91.703344
 20
298.769297
 30
0.0
 10
90.767027
 20
298.594033
 30
0.0
 10
89.812500
 20
298.136875
 30
0.0
 10
88.728598
 20
297.328857
 30
0.0
 10
87.404156
 20
296.101016
 30
0.0
 10
83.589000
 20
292.110000
 30
0.0
 10
78.123250
 20
286.576250
 30
0.0
 10
75.839719
 20
284.473781
 30
0.0
 10
74.264000
 20
283.204000
 30
0.0
 10
72.446156
 20
281.788281
 30
0.0
 10
71.936691
 20
281.203293
 30
0.0
 10
71.692000
 20
280.693750
 30
0.0
 10
71.710934
 20
280.254801
 30
0.0
 10
71.992344
 20
279.881594
 30
0.0
 10
72.535082
 20
279.569277
 30
0.0
 10
73.338000
 20
279.313000
 30
0.0
 10
74.390730
 20
279.155172
 30
0.0
 10
75.609094
 20
279.149312
 30
0.0
 10
78.414750
 20
279.564250
 30
0.0
 10
81.499031
 20
280.499312
 30
0.0
 10
84.606000
 20
281.896000
 30
0.0
  0
LWPOLYLINE
  5
11c
100
AcDbEntity
  8
0
 62
7
100
AcDbPolyline
 90
120
 70
1
 10
175.060000
 20
281.673000
 30
0.0
 10
177.244078
 20
282.442447
 30
0.0
 10
179.393375
 20
283.532016
 30
0.0
 10
181.459984
 20
284.897795
 30
0.0
 10
183.396000
 20
286.495875
 30
0.0
 10
185.153516
 20
288.282346
 30
0.0
 10
186.684625
 20
290.213297
 30
0.0
 10
187.941422
 20
292.244818
 30
0.0
 10
188.876000
 20
294.333000
 30
0.0
 10
189.630172
 20
296.640703
 30
0.0
 10
189.929375
 20
298.249125
 30
0.0
 10
189.787391
 20
299.398734
 30
0.0
 10
189.218000
 20
300.330000
 30
0.0
 10
188.421625
 20
301.392500
 30
0.0
 10
188.264141
 20
301.725000
 30
0.0
 10
188.307000
 20
301.858000
 30
0.0
 10
196.328000
 20
302.261000
 30
0.0
 10
200.528609
 20
302.553406
 30
0.0
 10
203.417375
 20
303.098000
 30
0.0
 10
204.604396
 20
303.535355
 30
0.0
 10
205.744953
 20
304.120344
 30
0.0
 10
208.262000
 20
305.846000
 30
0.0
 10
210.595762
 20
307.871645
 30
0.0
 10
212.605969
 20
310.166844
 30
0.0
 10
214.269254
 20
312.673871
 30
0.0
 10
215.562250
 20
315.335000
 30
0.0
 10
216.461590
 20
318.092504
 30
0.0
 10
216.943906
 20
320.888656
 30
0.0
 10
216.985832
 20
323.665730
 30
0.0
 10
216.564000
 20
326.366000
 30
0.0
 10
216.429465
 20
327.387350
 30
0.0
 10
216.618344
 20
327.930984
 30
0.0
 10
217.060863
 20
328.042408
 30
0.0
 10
217.687250
 20
327.767125
 30
0.0
 10
218.427730
 20
327.150639
 30
0.0
 10
219.212531
 20
326.238453
 30
0.0
 10
219.971879
 20
325.076072
 30
0.0
 10
220.636000
 20
323.709000
 30
0.0
 10
221.586113
 20
321.986822
 30
0.0
 10
223.151156
 20
319.999766
 30
0.0
 10
225.358434
 20
317.724545
 30
0.0
 10
228.235250
 20
315.137875
 30
0.0
 10
231.808910
 20
312.216471
 30
0.0
 10
236.106719
 20
308.937047
 30
0.0
 10
246.984000
 20
301.211000
 30
0.0
 10
252.142998
 20
298.011402
 30
0.0
 10
257.421609
 20
295.371281
 30
0.0
 10
262.677135
 20
293.322395
 30
0.0
 10
267.766875
 20
291.896500
 30
0.0
 10
270.204982
 20
291.427099
 30
0.0
 10
272.548131
 20
291.125355
 30
0.0
 10
274.778484
 20
290.995239
 30
0.0
 10
276.878203
 20
291.040719
 30
0.0
 10
278.829452
 20
291.265765
 30
0.0
 10
280.614393
 20
291.674348
 30
0.0
 10
282.215188
 20
292.270436
 30
0.0
 10
283.614000
 20
293.058000
 30
0.0
 10
284.817227
 20
293.968033
 30
0.0
 10
285.638000
 20
294.794641
 30
0.0
 10
286.074586
 20
295.545709
 30
0.0
 10
286.125250
 20
296.229125
 30
0.0
 10
285.788258
 20
296.852775
 30
0.0
 10
285.061875
 20
297.424547
 30
0.0
 10
283.944367
 20
297.952326
 30
0.0
 10
282.434000
 20
298.444000
 30
0.0
 10
278.351510
 20
299.848902
 30
0.0
 10
273.499766
 20
301.982969
 30
0.0
 10
267.961982
 20
304.797613
 30
0.0
 10
261.821375
 20
308.244250
 30
0.0
 10
255.161158
 20
312.274293
 30
0.0
 10
248.064547
 20
316.839156
 30
0.0
 10
240.614756
 20
321.890254
 30
0.0
 10
232.895000
 20
327.379000
 30
0.0
 10
223.597813
 20
333.974574
 30
0.0
 10
215.673500
 20
339.179719
 30
0.0
 10
208.847562
 20
343.100066
 30
0.0
 10
205.760703
 20
344.611452
 30
0.0
 10
202.845500
 20
345.841250
 30
0.0
 10
200.067641
 20
346.802666
 30
0.0
 10
197.392812
 20
347.508902
 30
0.0
 10
194.786703
 20
347.973165
 30
0.0
 10
192.215000
 20
348.208656
 30
0.0
 10
189.643391
 20
348.228582
 30
0.0
 10
187.037563
 20
348.046145
 30
0.0
 10
184.363203
 20
347.674549
 30
0.0
 10
181.586000
 20
347.127000
 30
0.0
 10
180.272162
 20
346.636414
 30
0.0
 10
178.778359
 20
345.751000
 30
0.0
 10
177.190783
 20
344.553773
 30
0.0
 10
175.595625
 20
343.127750
 30
0.0
 10
174.079076
 20
341.555945
 30
0.0
 10
172.727328
 20
339.921375
 30
0.0
 10
171.626572
 20
338.307055
 30
0.0
 10
170.863000
 20
336.796000
 30
0.0
 10
170.048658
 20
334.127996
 30
0.0
 10
169.675328
 20
331.394531
 30
0.0
 10
169.733553
 20
328.633176
 30
0.0
 10
170.213875
 20
325.881500
 30
0.0
 10
171.106838
 20
323.177074
 30
0.0
 10
172.402984
 20
320.557469
 30
0.0
 10
174.092857
 20
318.060254
 30
0.0
 10
176.167000
 20
315.723000
 30
0.0
 10
179.975000
 20
311.946000
 30
0.0
 10
177.794000
 20
308.607000
 30
0.0
 10
176.061879
 20
306.265141
 30
0.0
 10
174.200594
 20
304.350500
 30
0.0
 10
172.203137
 20
302.860359
 30
0.0
 10
170.062500
 20
301.792000
 30
0.0
 10
167.771676
 20
301.142703
 30
0.0
 10
165.323656
 20
300.909750
 30
0.0
 10
162.711434
 20
301.090422
 30
0.0
 10
159.928000
 20
301.682000
 30
0.0
 10
157.163000
 20
302.449000
 30
0.0
 10
157.354000
 20
292.371000
 30
0.0
 10
157.546000
 20
282.293000
 30
0.0
 10
160.813000
 20
281.416000
 30
0.0
 10
164.236516
 20
280.746422
 30
0.0
 10
167.721625
 20
280.565375
 30
0.0
 10
171.314172
 20
280.873891
 30
0.0
 10
175.060000
 20
281.673000
 30
0.0
  0
LWPOLYLINE
  5
11d
100
AcDbEntity
  8
0
 62
7
100
AcDbPolyline
 90
40
 70
1
 10
258.936000
 20
284.772000
 30
0.0
 10
259.508256
 20
285.115305
 30
0.0
 10
259.956422
 20
285.595812
 30
0.0
 10
260.442375
 20
286.741000
 30
0.0
 10
260.461107
 20
287.291961
 30
0.0
 10
260.317641
 20
287.752688
 30
0.0
 10
260.002447
 20
288.066320
 30
0.0
 10
259.506000
 20
288.176000
 30
0.0
 10
257.987141
 20
288.762068
 30
0.0
 10
255.125125
 20
290.383359
 30
0.0
 10
246.831500
 20
295.743625
 30
0.0
 10
237.544875
 20
302.280828
 30
0.0
 10
233.441609
 20
305.373291
 30
0.0
 10
230.185000
 20
308.019000
 30
0.0
 10
225.398828
 20
311.973875
 30
0.0
 10
223.685646
 20
313.197516
 30
0.0
 10
222.347875
 20
313.954000
 30
0.0
 10
221.327119
 20
314.269859
 30
0.0
 10
220.564984
 20
314.171625
 30
0.0
 10
220.003076
 20
313.685828
 30
0.0
 10
219.583000
 20
312.839000
 30
0.0
 10
219.156387
 20
311.381145
 30
0.0
 10
218.987844
 20
310.012656
 30
0.0
 10
219.096191
 20
308.688277
 30
0.0
 10
219.500250
 20
307.362750
 30
0.0
 10
220.218840
 20
305.990816
 30
0.0
 10
221.270781
 20
304.527219
 30
0.0
 10
222.674895
 20
302.926699
 30
0.0
 10
224.450000
 20
301.144000
 30
0.0
 10
229.167297
 20
296.955254
 30
0.0
 10
234.050438
 20
293.244656
 30
0.0
 10
238.958422
 20
290.079168
 30
0.0
 10
243.750250
 20
287.525750
 30
0.0
 10
248.284922
 20
285.651363
 30
0.0
 10
250.411762
 20
284.989732
 30
0.0
 10
252.421438
 20
284.522969
 30
0.0
 10
254.296324
 20
284.259444
 30
0.0
 10
256.018797
 20
284.207527
 30
0.0
 10
257.571230
 20
284.375589
 30
0.0
 10
258.936000
 20
284.772000
 30
0.0
  0
LWPOLYLINE
  5
11e
100
AcDbEntity
  8
0
 62
7
100
AcDbPolyline
 90
27
 70
1
 10
67.493000
 20
284.995000
 30
0.0
 10
69.832188
 20
286.390594
 30
0.0
 10
72.896250
 20
288.425750
 30
0.0
 10
79.609000
 20
293.322000
 30
0.0
 10
87.254000
 20
299.262000
 30
0.0
 10
83.973000
 20
302.520000
 30
0.0
 10
81.423500
 20
304.816500
 30
0.0
 10
80.466656
 20
305.511656
 30
0.0
 10
79.900000
 20
305.763000
 30
0.0
 10
79.184109
 20
305.374672
 30
0.0
 10
77.820875
 20
304.328125
 30
0.0
 10
73.935000
 20
300.899000
 30
0.0
 10
68.900313
 20
296.420141
 30
0.0
 10
63.853250
 20
292.385375
 30
0.0
 10
59.038313
 20
288.978922
 30
0.0
 10
54.700000
 20
286.385000
 30
0.0
 10
51.813547
 20
284.637766
 30
0.0
 10
51.038283
 20
283.942889
 30
0.0
 10
50.706375
 20
283.357875
 30
0.0
 10
50.816357
 20
282.875752
 30
0.0
 10
51.366766
 20
282.489547
 30
0.0
 10
52.356135
 20
282.192287
 30
0.0
 10
53.783000
 20
281.977000
 30
0.0
 10
57.246922
 20
281.854422
 30
0.0
 10
60.559625
 20
282.288625
 30
0.0
 10
63.911516
 20
283.321516
 30
0.0
 10
67.493000
 20
284.995000
 30
0.0
  0
LWPOLYLINE
  5
11f
100
AcDbEntity
  8
0
 62
7
100
AcDbPolyline
 90
35
 70
1
 10
50.879000
 20
290.075000
 30
0.0
 10
57.372797
 20
293.889078
 30
0.0
 10
66.464125
 20
299.739875
 30
0.0
 10
74.553641
 20
305.247734
 30
0.0
 10
77.097924
 20
307.129420
 30
0.0
 10
78.042000
 20
308.033000
 30
0.0
 10
77.467516
 20
310.166797
 30
0.0
 10
76.185125
 20
313.405625
 30
0.0
 10
74.793422
 20
316.362641
 30
0.0
 10
74.243639
 20
317.302080
 30
0.0
 10
73.891000
 20
317.651000
 30
0.0
 10
72.587453
 20
316.864641
 30
0.0
 10
69.613375
 20
314.734375
 30
0.0
 10
60.421000
 20
307.743000
 30
0.0
 10
56.187363
 20
304.550627
 30
0.0
 10
51.861219
 20
301.485016
 30
0.0
 10
43.536000
 20
296.098625
 30
0.0
 10
39.839223
 20
293.960119
 30
0.0
 10
36.654531
 20
292.312922
 30
0.0
 10
34.133074
 20
291.248170
 30
0.0
 10
32.426000
 20
290.857000
 30
0.0
 10
31.715963
 20
290.755684
 30
0.0
 10
31.345828
 20
290.509594
 30
0.0
 10
31.287061
 20
290.154895
 30
0.0
 10
31.511125
 20
289.727750
 30
0.0
 10
32.693609
 20
288.800781
 30
0.0
 10
34.665000
 20
288.018000
 30
0.0
 10
36.771443
 20
287.535613
 30
0.0
 10
38.779484
 20
287.254906
 30
0.0
 10
40.726939
 20
287.180684
 30
0.0
 10
42.651625
 20
287.317750
 30
0.0
 10
44.591357
 20
287.670910
 30
0.0
 10
46.583953
 20
288.244969
 30
0.0
 10
48.667229
 20
289.044730
 30
0.0
 10
50.879000
 20
290.075000
 30
0.0
  0
LWPOLYLINE
  5
120
100
AcDbEntity
  8
0
 62
7
100
AcDbPolyline
 90
41
 70
1
 10
155.807000
 20
327.179000
 30
0.0
 10
156.969813
 20
328.836157
 30
0.0
 10
157.848705
 20
330.535318
 30
0.0
 10
158.453921
 20
332.255582
 30
0.0
 10
158.795703
 20
333.976047
 30
0.0
 10
158.884296
 20
335.675810
 30
0.0
 10
158.729943
 20
337.333971
 30
0.0
 10
158.342888
 20
338.929626
 30
0.0
 10
157.733375
 20
340.441875
 30
0.0
 10
156.911647
 20
341.849815
 30
0.0
 10
155.887947
 20
343.132545
 30
0.0
 10
154.672520
 20
344.269162
 30
0.0
 10
153.275609
 20
345.238766
 30
0.0
 10
151.707458
 20
346.020453
 30
0.0
 10
149.978311
 20
346.593322
 30
0.0
 10
148.098410
 20
346.936472
 30
0.0
 10
146.078000
 20
347.029000
 30
0.0
 10
143.369125
 20
346.861609
 30
0.0
 10
141.397500
 20
346.347625
 30
0.0
 10
139.691375
 20
345.284828
 30
0.0
 10
137.779000
 20
343.471000
 30
0.0
 10
136.055859
 20
341.507156
 30
0.0
 10
135.056375
 20
339.776000
 30
0.0
 10
134.607203
 20
337.837844
 30
0.0
 10
134.535000
 20
335.253000
 30
0.0
 10
134.709297
 20
332.590391
 30
0.0
 10
134.934674
 20
331.561928
 30
0.0
 10
135.299375
 20
330.641125
 30
0.0
 10
135.838779
 20
329.757307
 30
0.0
 10
136.588266
 20
328.839797
 30
0.0
 10
138.859000
 20
326.621000
 30
0.0
 10
141.331453
 20
324.476031
 30
0.0
 10
142.299021
 20
323.815707
 30
0.0
 10
143.210375
 20
323.386500
 30
0.0
 10
144.157682
 20
323.155668
 30
0.0
 10
145.233109
 20
323.090469
 30
0.0
 10
148.137000
 20
323.326000
 30
0.0
 10
150.782750
 20
323.751266
 30
0.0
 10
152.717500
 20
324.421875
 30
0.0
 10
154.279500
 20
325.507797
 30
0.0
 10
155.807000
 20
327.179000
 30
0.0
  0
LWPOLYLINE
  5
121
100
AcDbEntity
  8
0
 62
7
100
AcDbPolyline
 90
37
 70
1
 10
146.272000
 20
327.876000
 30
0.0
 10
146.184578
 20
328.318437
 30
0.0
 10
146.422375
 20
328.785250
 30
0.0
 10
146.938984
 20
329.220937
 30
0.0
 10
147.688000
 20
329.570000
 30
0.0
 10
148.800578
 20
330.177982
 30
0.0
 10
149.822500
 20
331.159734
 30
0.0
 10
150.711297
 20
332.412963
 30
0.0
 10
151.424500
 20
333.835375
 30
0.0
 10
151.919641
 20
335.324678
 30
0.0
 10
152.154250
 20
336.778578
 30
0.0
 10
152.085859
 20
338.094783
 30
0.0
 10
151.672000
 20
339.171000
 30
0.0
 10
150.935293
 20
340.537906
 30
0.0
 10
150.616594
 20
341.661438
 30
0.0
 10
150.667410
 20
342.507187
 30
0.0
 10
151.039250
 20
343.040750
 30
0.0
 10
151.683621
 20
343.227719
 30
0.0
 10
152.552031
 20
343.033687
 30
0.0
 10
153.595988
 20
342.424250
 30
0.0
 10
154.767000
 20
341.365000
 30
0.0
 10
155.548111
 20
340.300063
 30
0.0
 10
156.088203
 20
339.058688
 30
0.0
 10
156.389162
 20
337.692156
 30
0.0
 10
156.452875
 20
336.251750
 30
0.0
 10
156.281229
 20
334.788750
 30
0.0
 10
155.876109
 20
333.354438
 30
0.0
 10
155.239404
 20
332.000094
 30
0.0
 10
154.373000
 20
330.777000
 30
0.0
 10
153.374115
 20
329.782324
 30
0.0
 10
152.232672
 20
328.918594
 30
0.0
 10
151.017986
 20
328.210629
 30
0.0
 10
149.799375
 20
327.683250
 30
0.0
 10
148.646154
 20
327.361277
 30
0.0
 10
147.627641
 20
327.269531
 30
0.0
 10
146.813150
 20
327.432832
 30
0.0
 10
146.272000
 20
327.876000
 30
0.0
  0
LWPOLYLINE
  5
122
100
AcDbEntity
  8
0
 62
7
100
AcDbPolyline
 90
18
 70
1
 10
168.644000
 20
264.133000
 30
0.0
 10
167.748365
 20
264.426840
 30
0.0
 10
167.177609
 20
264.777094
 30
0.0
 10
166.917705
 20
265.155238
 30
0.0
 10
166.954625
 20
265.532750
 30
0.0
 10
167.274342
 20
265.881105
 30
0.0
 10
167.862828
 20
266.171781
 30
0.0
 10
168.706057
 20
266.376254
 30
0.0
 10
169.790000
 20
266.466000
 30
0.0
 10
171.919437
 20
266.260562
 30
0.0
 10
172.672039
 20
266.003625
 30
0.0
 10
173.183000
 20
265.675250
 30
0.0
 10
173.427148
 20
265.298969
 30
0.0
 10
173.379313
 20
264.898312
 30
0.0
 10
173.014320
 20
264.496813
 30
0.0
 10
172.307000
 20
264.118000
 30
0.0
 10
170.572000
 20
263.596000
 30
0.0
 10
168.644000
 20
264.133000
 30
0.0
  0
LWPOLYLINE
  5
123
100
AcDbEntity
  8
0
 62
7
100
AcDbPolyline
 90
20
 70
1
 10
119.629000
 20
263.119000
 30
0.0
 10
119.286338
 20
263.570988
 30
0.0
 10
119.193391
 20
264.007156
 30
0.0
 10
119.332967
 20
264.414684
 30
0.0
 10
119.687875
 20
264.780750
 30
0.0
 10
120.974922
 20
265.337219
 30
0.0
 10
122.917000
 20
265.574000
 30
0.0
 10
124.060109
 20
265.516922
 30
0.0
 10
124.999125
 20
265.319875
 30
0.0
 10
125.636828
 20
265.013891
 30
0.0
 10
125.876000
 20
264.630000
 30
0.0
 10
125.771750
 20
264.239609
 30
0.0
 10
125.473250
 20
263.915875
 30
0.0
 10
125.026625
 20
263.692453
 30
0.0
 10
124.478000
 20
263.603000
 30
0.0
 10
123.072625
 20
263.420125
 30
0.0
 10
121.686000
 20
263.019000
 30
0.0
 10
120.515000
 20
262.818125
 30
0.0
 10
120.002719
 20
262.907484
 30
0.0
 10
119.629000
 20
263.119000
 30
0.0
  0
ENDSEC
  0
SECTION
  2
OBJECTS
  0
DICTIONARY
  5
C
330
0
100
AcDbDictionary
  3
ACAD_GROUP
350
D
  3
ACAD_MLINESTYLE
350
17
  0
DICTIONARY
  5
D
330
C
100
AcDbDictionary
  0
DICTIONARY
  5
1A
330
C
100
AcDbDictionary
  0
DICTIONARY
  5
17
330
C
100
AcDbDictionary
  3
STANDARD
350
18
  0
DICTIONARY
  5
19
330
C
100
AcDbDictionary
  0
ENDSEC
  0
EOF
